<svg width="32" height="32" viewBox="0 0 32 32" fill="none" xmlns="http://www.w3.org/2000/svg">
<path d="M16 32C24.8366 32 32 24.8366 32 16C32 7.16344 24.8366 0 16 0C7.16344 0 0 7.16344 0 16C0 24.8366 7.16344 32 16 32Z" fill="#F9C0C0"/>
<path d="M7.00652 13.001C6.78235 13.001 6.57453 12.9799 6.38715 12.9367C6.15566 12.8831 6.01131 12.6521 6.06488 12.4206C6.11844 12.1891 6.3495 12.0447 6.58098 12.0983C7.18551 12.2382 8.41996 12.0381 9.81424 11.2765C10.9532 10.6545 11.8658 9.83489 12.1958 9.13742C12.2975 8.92271 12.554 8.83085 12.7687 8.93261C12.9834 9.03437 13.075 9.29081 12.9735 9.50551C12.5635 10.3719 11.5364 11.3161 10.2267 12.0316C9.08623 12.6547 7.91396 13.001 7.00652 13.001Z" fill="#FFD4B2"/>
<path d="M24.8954 13.0011C23.988 13.0011 22.816 12.6547 21.6751 12.0317C20.3651 11.3163 19.3383 10.3719 18.9283 9.50555C18.8265 9.29085 18.9181 9.03419 19.1331 8.93265C19.348 8.83089 19.6044 8.92253 19.706 9.13745C20.0362 9.83492 20.9488 10.6544 22.0877 11.2765C23.4822 12.0381 24.7162 12.238 25.321 12.0984C25.5525 12.045 25.7835 12.1891 25.8371 12.4206C25.8907 12.6521 25.7463 12.8832 25.5148 12.9367C25.3274 12.98 25.1194 13.0011 24.8954 13.0011Z" fill="#FFD4B2"/>
<path d="M10.5984 17.1405C11.3443 17.1405 11.9488 16.2857 11.9488 15.2314C11.9488 14.177 11.3443 13.3223 10.5984 13.3223C9.85264 13.3223 9.24805 14.177 9.24805 15.2314C9.24805 16.2857 9.85264 17.1405 10.5984 17.1405Z" fill="#542A19"/>
<path d="M21.283 17.1405C22.0288 17.1405 22.6334 16.2857 22.6334 15.2314C22.6334 14.177 22.0288 13.3223 21.283 13.3223C20.5372 13.3223 19.9326 14.177 19.9326 15.2314C19.9326 16.2857 20.5372 17.1405 21.283 17.1405Z" fill="#542A19"/>
<g opacity="0.81">
<path d="M5.59256 10.5389C5.54803 10.5389 5.50307 10.5344 5.45767 10.5247C5.10894 10.4507 4.88649 10.1077 4.9605 9.75922C5.43336 7.5343 6.74826 5.69533 8.763 4.44066C10.3985 3.422 12.4523 2.83984 14.4056 2.83984C14.4223 2.83984 14.4387 2.83984 14.4555 2.84006C14.8119 2.84178 15.0994 3.13221 15.0976 3.48869C15.0959 3.84409 14.8072 4.13087 14.4522 4.13087C14.4512 4.13087 14.4501 4.13087 14.4488 4.13087C14.4363 4.13087 14.4234 4.13087 14.4107 4.13087C11.6086 4.13087 7.14411 5.6949 6.22312 10.0279C6.1588 10.3311 5.89074 10.5389 5.59256 10.5389Z" fill="white"/>
</g>
<path d="M20.54 23.1678C20.4619 23.1678 20.3828 23.1465 20.3116 23.102C19.1341 22.3628 17.6127 21.9558 16.0276 21.9558C14.4414 21.9558 12.9092 22.363 11.7133 23.1026C11.5113 23.2276 11.246 23.165 11.121 22.963C10.996 22.761 11.0586 22.4957 11.2606 22.3707C12.5906 21.5483 14.2835 21.0952 16.0276 21.0952C17.7725 21.0952 19.4564 21.5491 20.7692 22.3731C20.9705 22.4994 21.0312 22.7651 20.9047 22.9662C20.8232 23.0964 20.6831 23.1678 20.54 23.1678Z" fill="#451716"/>
<path d="M9.6207 25.0336C9.38298 25.0336 9.19043 24.841 9.19043 24.6033C9.19043 24.3656 9.38298 24.173 9.6207 24.173C10.4124 24.173 11.0567 23.5289 11.0567 22.737C11.0567 21.9451 10.4126 21.301 9.6207 21.301C9.38298 21.301 9.19043 21.1084 9.19043 20.8707C9.19043 20.633 9.38298 20.4404 9.6207 20.4404C10.887 20.4404 11.9173 21.4707 11.9173 22.737C11.917 24.0035 10.887 25.0336 9.6207 25.0336Z" fill="#451716"/>
<path d="M22.4059 25.0336C21.1397 25.0336 20.1094 24.0033 20.1094 22.737C20.1094 21.4707 21.1397 20.4404 22.4059 20.4404C22.6437 20.4404 22.8362 20.633 22.8362 20.8707C22.8362 21.1084 22.6437 21.301 22.4059 21.301C21.6142 21.301 20.9699 21.9451 20.9699 22.737C20.9699 23.5289 21.614 24.173 22.4059 24.173C22.6437 24.173 22.8362 24.3656 22.8362 24.6033C22.8362 24.841 22.6437 25.0336 22.4059 25.0336Z" fill="#451716"/>
</svg>
