<svg width="32" height="32" viewBox="0 0 32 32" fill="none" xmlns="http://www.w3.org/2000/svg">
<path d="M16 32C24.8366 32 32 24.8366 32 16C32 7.16344 24.8366 0 16 0C7.16344 0 0 7.16344 0 16C0 24.8366 7.16344 32 16 32Z" fill="#FFD4B2"/>
<g opacity="0.81">
<path d="M5.59158 10.539C5.54705 10.539 5.50209 10.5345 5.4567 10.5248C5.10796 10.4508 4.88551 10.1079 4.95952 9.75934C5.43238 7.53442 6.74729 5.69545 8.76202 4.44078C10.4117 3.41351 12.4873 2.83028 14.4543 2.83996C14.8108 2.84168 15.0982 3.13212 15.0965 3.48859C15.0947 3.844 14.806 4.13077 14.451 4.13077C14.45 4.13077 14.4489 4.13077 14.4476 4.13077C14.4351 4.13077 14.4222 4.13077 14.4095 4.13077C11.6074 4.13077 7.14292 5.6948 6.22193 10.0278C6.15782 10.3312 5.88976 10.539 5.59158 10.539Z" fill="white"/>
</g>
<path opacity="0.64" d="M10.4704 18.3529C12.8078 18.3529 14.7025 16.4581 14.7025 14.1208C14.7025 11.7835 12.8078 9.88867 10.4704 9.88867C8.13307 9.88867 6.23828 11.7835 6.23828 14.1208C6.23828 16.4581 8.13307 18.3529 10.4704 18.3529Z" fill="#606161"/>
<path d="M10.4706 18.1111C12.6742 18.1111 14.4607 16.3246 14.4607 14.121C14.4607 11.9173 12.6742 10.1309 10.4706 10.1309C8.2669 10.1309 6.48047 11.9173 6.48047 14.121C6.48047 16.3246 8.2669 18.1111 10.4706 18.1111Z" fill="white"/>
<path d="M10.4706 18.1111C12.6742 18.1111 14.4607 16.3246 14.4607 14.121C14.4607 11.9173 12.6742 10.1309 10.4706 10.1309C8.2669 10.1309 6.48047 11.9173 6.48047 14.121C6.48047 16.3246 8.2669 18.1111 10.4706 18.1111Z" fill="url(#paint0_radial_103_3239)"/>
<path d="M11.4017 13.782C12.3523 13.782 13.1228 13.0114 13.1228 12.0609C13.1228 11.1104 12.3523 10.3398 11.4017 10.3398C10.4512 10.3398 9.68066 11.1104 9.68066 12.0609C9.68066 13.0114 10.4512 13.782 11.4017 13.782Z" fill="#542A1A"/>
<path opacity="0.64" d="M21.531 18.3529C23.8683 18.3529 25.7631 16.4581 25.7631 14.1208C25.7631 11.7835 23.8683 9.88867 21.531 9.88867C19.1936 9.88867 17.2988 11.7835 17.2988 14.1208C17.2988 16.4581 19.1936 18.3529 21.531 18.3529Z" fill="#606161"/>
<path d="M21.5301 18.1111C23.7338 18.1111 25.5202 16.3246 25.5202 14.121C25.5202 11.9173 23.7338 10.1309 21.5301 10.1309C19.3265 10.1309 17.54 11.9173 17.54 14.121C17.54 16.3246 19.3265 18.1111 21.5301 18.1111Z" fill="white"/>
<path d="M22.4613 13.782C23.4118 13.782 24.1824 13.0114 24.1824 12.0609C24.1824 11.1104 23.4118 10.3398 22.4613 10.3398C21.5108 10.3398 20.7402 11.1104 20.7402 12.0609C20.7402 13.0114 21.5108 13.782 22.4613 13.782Z" fill="#542A1A"/>
<path d="M19.0097 23.4597H13.0475C12.8097 23.4597 12.6172 23.2671 12.6172 23.0294C12.6172 22.7917 12.8097 22.5991 13.0475 22.5991H19.0099C19.2476 22.5991 19.4402 22.7917 19.4402 23.0294C19.4402 23.2671 19.2474 23.4597 19.0097 23.4597Z" fill="#451716"/>
<defs>
<radialGradient id="paint0_radial_103_3239" cx="0" cy="0" r="1" gradientUnits="userSpaceOnUse" gradientTransform="translate(10.4705 14.121) scale(3.99017)">
<stop offset="0.0046718" stop-color="white"/>
</radialGradient>
</defs>
</svg>
