<svg width="30" height="30" viewBox="0 0 30 30" fill="none" xmlns="http://www.w3.org/2000/svg">
<path d="M16.4543 14.5491L16.4562 14.9917C16.4562 16.8313 16.3485 18.5084 16.1862 19.6016L16.0441 20.2815C15.965 20.6415 15.861 21.0515 15.7526 21.2608C15.3558 22.0263 14.5799 22.5 13.7494 22.5H13.6772C13.1358 22.4821 11.9985 22.0071 11.9985 21.9905C10.1686 21.2227 6.63807 18.9054 5.0075 17.2533L4.53366 16.7573C4.40958 16.6228 4.27018 16.4637 4.18363 16.3397C3.89454 15.9569 3.75 15.4833 3.75 15.0096C3.75 14.4809 3.91227 13.9894 4.21909 13.5873L4.70591 13.0619L4.81499 12.9498C6.29451 11.3457 10.1576 8.72269 12.1785 7.91996L12.4836 7.80303C12.8508 7.67142 13.3652 7.51446 13.6772 7.5C14.074 7.5 14.4531 7.59225 14.8144 7.774C15.2658 8.02873 15.6258 8.43079 15.8249 8.90444C15.9517 9.23215 16.1508 10.2166 16.1508 10.2345C16.3333 11.2272 16.4391 12.7935 16.4543 14.5491ZM26.25 15.0006C26.25 16.0484 25.4086 16.8979 24.3709 16.8979H19.375C16.4167 16.8979 13.125 17.0579 13.125 15C13.125 12.9421 15 13.125 20 13.125L24.3709 13.1032C25.4086 13.1032 26.25 13.9527 26.25 15.0006Z" fill="black"/>
</svg>
