<svg width="45" height="45" viewBox="0 0 45 45" fill="none" xmlns="http://www.w3.org/2000/svg">
<g clip-path="url(#clip0_103_1783)">
<path d="M6.63521 7.19002L6.63522 7.19001L6.63152 7.18452C6.59595 7.13183 6.57031 7.05538 6.57031 6.97118C6.57031 6.74886 6.74886 6.57031 6.97118 6.57031H14.3062C14.6233 6.57031 14.9162 6.73945 15.0701 6.99867L15.0701 6.99868L15.0732 7.00389L18.7483 13.1254C16.4803 13.7016 14.4148 14.7853 12.6826 16.2522L6.63521 7.19002ZM38.358 7.19049L32.3171 16.2518C30.585 14.7851 28.5197 13.7015 26.2519 13.1254L29.9252 7.00689C29.9254 7.00648 29.9257 7.00607 29.9259 7.00567C30.0904 6.73436 30.3835 6.57031 30.6941 6.57031H38.029C38.2514 6.57031 38.4299 6.74886 38.4299 6.97118C38.4299 7.03005 38.4174 7.08513 38.3977 7.13096L38.358 7.19049ZM20.8184 20.9412L20.8184 20.9412L20.8154 20.9471L19.4574 23.6996L16.4178 24.1416C16.4173 24.1417 16.4168 24.1418 16.4163 24.1418C14.8461 24.3673 14.2896 26.2646 15.3617 27.3367L15.3673 27.3422L15.3729 27.3477L17.5754 29.4956L17.0539 32.5219L17.0536 32.5234C16.7932 34.0457 18.3906 35.2299 19.7766 34.5068L19.781 34.5045L22.4968 33.0738L25.2126 34.5045L25.2169 34.5068C26.5954 35.226 28.1996 34.0614 27.9404 32.5261L27.9397 32.5219L27.4181 29.4956L29.6156 27.3526C29.6167 27.3515 29.6178 27.3505 29.6189 27.3494C30.7595 26.2447 30.0923 24.3779 28.5914 24.144L28.5915 24.1439L28.5792 24.1421L25.5429 23.6997L24.1882 20.9541C24.1875 20.9527 24.1869 20.9513 24.1862 20.9499C23.4938 19.5324 21.5065 19.5649 20.8184 20.9412ZM11.939 27.8688C11.939 25.0678 13.0517 22.3816 15.0323 20.401C17.0129 18.4204 19.6991 17.3077 22.5001 17.3077C25.3011 17.3077 27.9874 18.4204 29.968 20.401C31.9485 22.3816 33.0612 25.0678 33.0612 27.8688C33.0612 30.6698 31.9485 33.356 29.968 35.3366C27.9874 37.3172 25.3011 38.4299 22.5001 38.4299C19.6991 38.4299 17.0129 37.3172 15.0323 35.3366C13.0517 33.356 11.939 30.6698 11.939 27.8688Z" stroke="#94A684" stroke-width="2.5"/>
</g>
<defs>
<clipPath id="clip0_103_1783">
<rect width="34.3596" height="34.3596" fill="white" transform="translate(5.32031 5.32031)"/>
</clipPath>
</defs>
</svg>
