<svg width="45" height="45" viewBox="0 0 45 45" fill="none" xmlns="http://www.w3.org/2000/svg">
<path fill-rule="evenodd" clip-rule="evenodd" d="M7.72838 6C7.26339 6 7.00975 6.12523 7.00975 6.62615L7.00975 7.16432C7.00975 9.36955 7.00974 17.6198 7.00976 23.0731C6.75608 29.2511 11.4484 35.8048 21.2135 39.8122C21.7208 40.0626 22.3549 40.0626 22.8199 39.8122C32.289 35.8465 37.235 29.5433 36.9813 23.0731C37.0151 14.357 36.9954 8.47678 36.9813 6.62615C36.9789 6.30087 36.8968 6 36.2204 6H7.72838ZM8.15112 23.0731V7.04359H35.8822V23.0731C35.8822 30.1277 30.1754 35.763 21.9744 38.8938C13.2662 35.4291 8.0243 29.752 8.15112 23.0731Z" fill="#94A684"/>
<path fill-rule="evenodd" clip-rule="evenodd" d="M12.5898 10.3413C11.4484 10.3413 11.4484 10.3413 11.4484 11.4266V23.0731C11.3216 28.4162 15.4221 32.2566 21.9744 35.4291C28.6535 32.1731 32.6695 28.4579 32.6695 23.0731C32.6695 19.934 32.6272 14.0008 32.6272 11.4266C32.6272 10.3413 32.6272 10.3413 31.5704 10.3413H12.5898ZM12.5475 23.0731L12.5898 11.4266H31.4858V23.0731C31.7395 28.291 26.1594 32.2566 21.9744 34.2185C15.5912 31.1713 12.4273 27.4979 12.5475 23.0731Z" fill="#94A684"/>
<path fill-rule="evenodd" clip-rule="evenodd" d="M16.4789 17.5629C14.4075 17.8134 13.9848 17.9804 15.7603 19.5666C17.7048 21.4451 17.7048 21.4451 18.0007 21.7373L17.4089 25.0767C17.0284 26.83 17.4089 27.0387 19.1844 26.0368C21.3403 24.8203 21.4671 24.7428 21.9744 24.4506L24.849 26.1621C26.5399 26.9969 26.9237 26.9134 26.5399 25.0767C26.1002 22.9729 25.9622 21.9738 25.9481 21.7373L28.4422 19.3579C29.7526 18.1891 29.5835 17.7763 28.0194 17.6047C25.9058 17.3125 24.7785 17.1594 24.4685 17.1038L22.8199 13.7225C22.2703 12.6789 21.8053 12.4702 21.298 13.7225C20.4526 15.3088 20.0721 16.1019 19.4803 17.1038L16.4789 17.5629ZM19.1844 21.3198L16.4789 18.69L20.2835 18.0221L21.9744 14.6409L23.7076 18.0221L27.5122 18.69L24.849 21.3198L25.3985 25.0767L21.9744 23.3653L18.5503 25.0767L19.1844 21.3198Z" fill="#94A684"/>
<path d="M7.72838 6C7.26339 6 7.00975 6.12523 7.00975 6.62615M7.72838 6C8.19338 6 35.5779 6 36.2204 6M7.72838 6H36.2204M7.00975 6.62615L7.00975 7.16432M7.00975 6.62615C7.00975 6.68492 7.00975 6.87123 7.00975 7.16432M36.2204 6C36.8968 6 36.9789 6.30087 36.9813 6.62615C36.9954 8.47678 37.0151 14.357 36.9813 23.0731C37.235 29.5433 32.289 35.8465 22.8199 39.8122C22.3549 40.0626 21.7208 40.0626 21.2135 39.8122C11.4484 35.8048 6.75608 29.2511 7.00976 23.0731C7.00974 17.6198 7.00975 9.36955 7.00975 7.16432M35.8822 23.0731C35.8822 30.1277 30.1754 35.763 21.9744 38.8938C13.2662 35.4291 8.0243 29.752 8.15112 23.0731V7.04359H35.8822M35.8822 23.0731C35.8822 17.1038 35.8822 10.1326 35.8822 7.04359M35.8822 23.0731V7.04359M12.5898 10.3413C11.4484 10.3413 11.4484 10.3413 11.4484 11.4266M12.5898 10.3413C13.7312 10.3413 30.5558 10.3413 31.5704 10.3413M12.5898 10.3413H31.5704M11.4484 11.4266C11.4484 12.512 11.4484 19.6918 11.4484 23.0731M11.4484 11.4266V23.0731M11.4484 23.0731C11.3216 28.4162 15.4221 32.2566 21.9744 35.4291C28.6535 32.1731 32.6695 28.4579 32.6695 23.0731C32.6695 19.934 32.6272 14.0008 32.6272 11.4266C32.6272 10.3413 32.6272 10.3413 31.5704 10.3413M31.4858 23.0731C31.7395 28.291 26.1594 32.2566 21.9744 34.2185C15.5912 31.1713 12.4273 27.4979 12.5475 23.0731L12.5898 11.4266H31.4858M31.4858 23.0731C31.4858 18.4395 31.4858 13.5138 31.4858 11.4266M31.4858 23.0731V11.4266M16.4789 18.69L19.1844 21.3198L18.5503 25.0767L21.9744 23.3653L25.3985 25.0767L24.849 21.3198L27.5122 18.69L23.7076 18.0221L21.9744 14.6409L20.2835 18.0221L16.4789 18.69ZM16.4789 17.5629C14.4075 17.8134 13.9848 17.9804 15.7603 19.5666C17.7048 21.4451 17.7048 21.4451 18.0007 21.7373L17.4089 25.0767C17.0284 26.83 17.4089 27.0387 19.1844 26.0368C21.3403 24.8203 21.4671 24.7428 21.9744 24.4506L24.849 26.1621C26.5399 26.9969 26.9237 26.9134 26.5399 25.0767C26.1002 22.9729 25.9622 21.9738 25.9481 21.7373L28.4422 19.3579C29.7526 18.1891 29.5835 17.7763 28.0194 17.6047C25.9058 17.3125 24.7785 17.1594 24.4685 17.1038L22.8199 13.7225C22.2703 12.6789 21.8053 12.4702 21.298 13.7225C20.4526 15.3088 20.0721 16.1019 19.4803 17.1038L16.4789 17.5629Z" stroke="#94A684" stroke-width="1.5"/>
</svg>
