<svg width="45" height="45" viewBox="0 0 45 45" fill="none" xmlns="http://www.w3.org/2000/svg">
<g clip-path="url(#clip0_164_2)">
<path d="M6.63496 7.18977L6.63498 7.18976L6.63127 7.18428C6.59571 7.13159 6.57007 7.05513 6.57007 6.97094C6.57007 6.74862 6.74862 6.57007 6.97094 6.57007H14.3059C14.6231 6.57007 14.916 6.73921 15.0699 6.99843L15.0699 6.99843L15.073 7.00365L18.7481 13.1252C16.4801 13.7013 14.4146 14.785 12.6824 16.252L6.63496 7.18977ZM38.3578 7.19024L32.3169 16.2516C30.5847 14.7848 28.5194 13.7013 26.2517 13.1252L29.9249 7.00665C29.9252 7.00624 29.9254 7.00583 29.9257 7.00542C30.0902 6.73412 30.3832 6.57007 30.6938 6.57007H38.0288C38.2511 6.57007 38.4297 6.74862 38.4297 6.97094C38.4297 7.02981 38.4171 7.08489 38.3974 7.13071L38.3578 7.19024ZM20.8181 20.9409L20.8181 20.9409L20.8152 20.9469L19.4571 23.6994L16.4175 24.1414C16.4171 24.1415 16.4166 24.1415 16.4161 24.1416C14.8459 24.367 14.2894 26.2644 15.3615 27.3365L15.367 27.342L15.3726 27.3475L17.5752 29.4954L17.0536 32.5216L17.0533 32.5232C16.793 34.0454 18.3903 35.2297 19.7763 34.5065L19.7807 34.5042L22.4965 33.0736L25.2123 34.5042L25.2167 34.5065C26.5951 35.2257 28.1993 34.0611 27.9401 32.5258L27.9394 32.5216L27.4179 29.4954L29.6154 27.3524C29.6165 27.3513 29.6176 27.3502 29.6187 27.3492C30.7592 26.2444 30.092 24.3776 28.5912 24.1437L28.5912 24.1437L28.5789 24.1419L25.5427 23.6995L24.188 20.9538C24.1873 20.9524 24.1866 20.9511 24.186 20.9497C23.4936 19.5322 21.5063 19.5647 20.8181 20.9409ZM11.9388 27.8686C11.9388 25.0676 13.0514 22.3813 15.032 20.4007C17.0126 18.4201 19.6989 17.3074 22.4999 17.3074C25.3009 17.3074 27.9871 18.4201 29.9677 20.4007C31.9483 22.3813 33.061 25.0676 33.061 27.8686C33.061 30.6695 31.9483 33.3558 29.9677 35.3364C27.9871 37.317 25.3009 38.4297 22.4999 38.4297C19.6989 38.4297 17.0126 37.317 15.032 35.3364C13.0514 33.3558 11.9388 30.6695 11.9388 27.8686Z" stroke="#94A684" stroke-width="2.5"/>
</g>
<defs>
<clipPath id="clip0_164_2">
<rect width="34.3596" height="34.3596" fill="white" transform="translate(5.32007 5.32007)"/>
</clipPath>
</defs>
</svg>
