<svg width="47" height="47" viewBox="0 0 47 47" fill="none" xmlns="http://www.w3.org/2000/svg">
<path fill-rule="evenodd" clip-rule="evenodd" d="M39.0015 28.0014C39.6602 28.0014 40.9777 27.5347 40.9777 25.6683L40.9777 10.1147C41.0875 9.41104 40.846 8.00381 39.0015 8.00381L34.2804 8.00381C33.585 8.15194 32.1943 8.78149 32.1943 10.1147L32.1943 25.8905C32.3041 26.5941 32.919 28.0014 34.5 28.0014L39.0015 28.0014Z" fill="#333333"/>
<path d="M29.7789 18L29.7789 13.1143C27.2537 10.2258 23.9599 7.89271 19.8975 8.00381C15.2862 8.3371 10.7847 7.00393 10.3456 12.5588C7.93012 14.1142 8.14971 16.1139 8.47909 18.0026C6.83219 19.4468 7.05178 21.5577 7.27136 22.6687C5.73426 23.5575 4.74613 29.3345 9.46722 30.1122C13.2441 30.2011 16.311 30.2233 17.3723 30.2233C15.9816 33.0378 14.7373 38.6667 19.0192 39C20.9955 39 21.8738 38.7778 22.6424 37.5557C23.9599 36.0004 23.5207 32.503 27.8026 29.5567C29.9985 28.0458 29.7789 27.8482 29.7789 26.2238L29.7789 22L29.7789 18Z" fill="#333333"/>
</svg>
