<svg width="47" height="47" viewBox="0 0 47 47" fill="none" xmlns="http://www.w3.org/2000/svg">
<path d="M28.132 14.4475C29.2299 15.4473 30.767 14.3364 29.7789 13.1143C27.2537 10.2258 23.9599 7.89271 19.8975 8.00381C15.2862 8.3371 10.7847 7.00393 10.3456 12.5588C7.93012 14.1142 8.1497 16.1139 8.47908 18.0026C6.83219 19.4468 7.05177 21.5577 7.27136 22.6687C5.73426 23.5575 4.74612 29.3345 9.46722 30.1122C13.2441 30.2011 16.311 30.2233 17.3723 30.2233C15.9816 33.0378 14.7373 38.6667 19.0192 39C20.9955 39 21.8738 38.7778 22.6424 37.5557C23.9599 36.0004 23.5207 32.503 27.8026 29.5567C29.9985 28.0458 30.3279 26.7793 29.7789 26.2238C29.4495 25.8905 28.9005 25.6683 27.4732 27.0015L27.3962 27.0646C25.1188 28.9299 22.9607 30.6974 21.9836 33.334C20.9955 36.0004 20.5563 36.8891 19.6779 36.778C18.2506 36.5559 17.4821 36.1115 18.6898 32.2231C20.3367 28.6679 20.3367 29.1123 20.0073 28.5568C19.6779 28.0014 19.2388 28.0014 18.2506 28.0013L10.3456 28.0013C8.36929 28.0013 6.7224 25.8905 9.35742 23.6685C9.90639 22.7798 8.80846 21.891 9.35742 20.4467C9.84931 19.1526 10.5849 19.7392 10.8945 18.447C11.0575 17.7668 10.1896 17.3767 10.3456 16.1139C10.5651 14.3364 11.8827 14.3364 12.3218 13.5587C12.761 12.781 11.4435 10.2258 15.396 10.1147C19.4584 10.2258 22.313 9.67027 24.8382 11.7811C26.8584 13.4698 27.8758 14.2623 28.132 14.4475Z" fill="#333333"/>
<path fill-rule="evenodd" clip-rule="evenodd" d="M39.0015 28.0014C39.6602 28.0014 40.9777 27.5347 40.9777 25.6683L40.9777 10.1147C41.0875 9.41104 40.846 8.00381 39.0015 8.00381L34.2804 8.00381C33.585 8.15194 32.1943 8.78149 32.1943 10.1147L32.1943 25.8905C32.3041 26.5941 32.919 28.0014 34.5 28.0014L39.0015 28.0014ZM38.7819 10.2258L38.7819 25.6683L34.5 25.6683L34.2804 10.2258L38.7819 10.2258Z" fill="#333333"/>
</svg>
