<svg width="45" height="45" viewBox="0 0 45 45" fill="none" xmlns="http://www.w3.org/2000/svg">
<path fill-rule="evenodd" clip-rule="evenodd" d="M35.6488 9.36137C16.1106 -7.35336 -6.68465 18.764 9.48089 35.5947C27.8571 52.5424 52.3968 27.5858 35.6488 9.36137ZM6.34114 22.4784C5.87594 27.0287 8.78348 31.5711 10.2954 33.2736L20.7626 22.4784C20.2586 22.0141 18.9017 20.7373 17.5061 19.3444C14.5986 21.4337 11.691 22.5945 6.34114 22.4784ZM6.45744 20.1569C11.1095 20.9694 14.1334 19.4604 16.2268 17.6032L10.2954 11.9154C9.13238 13.231 6.64353 16.9067 6.45744 20.1569ZM17.5061 15.9781L12.0399 10.4064C12.854 9.36174 16.692 6.80805 20.1811 6.57589C20.7393 11.4976 18.6304 14.8947 17.5061 15.9781ZM19.3669 17.6032C22.9956 13.703 22.8172 8.47182 22.2745 6.34374C27.3918 5.87943 31.6174 8.85874 33.0905 10.4064L22.5071 20.8534C22.0806 20.3504 20.8556 18.9961 19.3669 17.6032ZM12.0399 34.7826L22.5071 24.3357L25.7635 27.7019C24.3291 29.4817 21.7395 34.2022 22.856 38.8453C18.39 39.5882 13.7845 36.4464 12.0399 34.7826ZM25.182 38.4971C24.3447 34.2254 26.3063 30.5264 27.3918 29.2109L33.0905 34.7826C32.0051 35.8273 28.9037 38.0328 25.182 38.4971ZM34.9514 33.2736L29.3689 27.7019C31.1134 25.4964 35.6488 24.3357 38.5567 25.2643C38.4637 28.793 36.1144 32.0741 34.9514 33.2736ZM24.3679 22.4784L27.6244 25.7286C29.4852 24.1035 34.6025 21.6659 38.7893 22.8267C38.9754 17.905 36.3082 13.5018 34.9514 11.9154L24.3679 22.4784Z" fill="#94A684" stroke="#94A684" stroke-linejoin="round"/>
</svg>
