<svg width="45" height="45" viewBox="0 0 45 45" fill="none" xmlns="http://www.w3.org/2000/svg">
<path d="M8.29499 5.70436L6.93913 14.4457C7.05212 16.9054 5.92236 19.4408 9.87683 21.8248C11.1197 22.3925 13.4925 22.3925 13.6054 22.3925L13.4925 39.5346C13.9444 40.4807 15.0065 41.8051 15.6392 39.5346C16.272 37.2641 15.9029 27.2362 15.6392 22.506C18.916 22.1654 22.8706 21.8248 22.3056 14.4457C21.8537 11.8347 21.2888 8.8831 20.9498 6.04499C20.6515 3.54741 18.5921 4.34212 18.803 5.93146C19.029 7.63435 19.594 10.586 20.0459 13.5376C20.272 16.0352 21.2888 19.4409 17.3341 20.2355C15.7524 20.4626 13.6054 20.6896 11.2327 20.0085C8.63408 18.7597 8.52154 17.8478 9.31201 12.7429C10.1031 7.6343 10.3289 7.52077 10.5549 5.59086C10.7809 4.22856 8.52109 3.77446 8.29499 5.70436Z" fill="#94A684"/>
<path d="M11.5718 9.90475L11.7978 5.47734C11.7978 4.11507 14.0694 3.83341 13.9445 5.59078C13.7187 8.7695 13.4926 14.5593 13.4926 17.0568C13.3796 18.192 11.1672 18.3056 11.2327 17.0568C11.3458 14.8998 11.4588 12.2888 11.5718 9.90475Z" fill="#94A684"/>
<path d="M15.5264 11.04L15.3004 5.59078C15.3004 4.34199 17.2213 3.77444 17.3342 5.59086C17.4753 7.86132 17.4472 9.22361 17.5602 11.1535L17.7862 13.9916L17.8991 16.6027C17.8991 17.7379 15.8564 18.3846 15.7522 16.6027C15.6394 14.6728 15.5265 13.1969 15.5264 11.04Z" fill="#94A684"/>
<path fill-rule="evenodd" clip-rule="evenodd" d="M27.0512 21.8248L27.1642 15.9215C27.4655 12.9699 27.6161 8.54242 33.9434 4.90969C38.3499 2.63923 38.3499 6.38545 38.3499 9.33716C38.3499 9.33716 38.3499 36.9236 38.3499 38.967C38.3499 41.0104 36.0901 41.6915 36.0901 38.967C36.0901 36.2425 36.2033 32.1555 36.0901 29.2039C30.7798 28.8633 27.0512 30.7932 27.0512 21.8248ZM31.6836 27.1605C29.311 27.0469 29.311 25.5711 29.311 23.9817C29.311 23.1114 29.198 20.1219 29.3108 15.9215C29.4938 9.10958 34.8475 6.83948 36.2033 6.49898L36.0901 27.1605C35.4875 27.1227 33.7152 27.2578 31.6836 27.1605Z" fill="#94A684"/>
<path d="M8.29499 5.70436L6.93913 14.4457C7.05212 16.9054 5.92236 19.4408 9.87683 21.8248C11.1197 22.3925 13.4925 22.3925 13.6054 22.3925L13.4925 39.5346C13.9444 40.4807 15.0065 41.8051 15.6392 39.5346C16.272 37.2641 15.9029 27.2362 15.6392 22.506C18.916 22.1654 22.8706 21.8248 22.3056 14.4457C21.8537 11.8347 21.2888 8.8831 20.9498 6.04499C20.6515 3.54741 18.5921 4.34212 18.803 5.93146C19.029 7.63435 19.594 10.586 20.0459 13.5376C20.272 16.0352 21.2888 19.4409 17.3341 20.2355C15.7524 20.4626 13.6054 20.6896 11.2327 20.0085C8.63408 18.7597 8.52154 17.8478 9.31201 12.7429C10.1031 7.6343 10.3289 7.52077 10.5549 5.59086C10.7809 4.22856 8.52109 3.77446 8.29499 5.70436Z" stroke="#94A684" stroke-linejoin="round"/>
<path d="M11.5718 9.90475L11.7978 5.47734C11.7978 4.11507 14.0694 3.83341 13.9445 5.59078C13.7187 8.7695 13.4926 14.5593 13.4926 17.0568C13.3796 18.192 11.1672 18.3056 11.2327 17.0568C11.3458 14.8998 11.4588 12.2888 11.5718 9.90475Z" stroke="#94A684" stroke-linejoin="round"/>
<path d="M15.5264 11.04L15.3004 5.59078C15.3004 4.34199 17.2213 3.77444 17.3342 5.59086C17.4753 7.86132 17.4472 9.22361 17.5602 11.1535L17.7862 13.9916L17.8991 16.6027C17.8991 17.7379 15.8564 18.3846 15.7522 16.6027C15.6394 14.6728 15.5265 13.1969 15.5264 11.04Z" stroke="#94A684" stroke-linejoin="round"/>
<path fill-rule="evenodd" clip-rule="evenodd" d="M27.0512 21.8248L27.1642 15.9215C27.4655 12.9699 27.6161 8.54242 33.9434 4.90969C38.3499 2.63923 38.3499 6.38545 38.3499 9.33716C38.3499 9.33716 38.3499 36.9236 38.3499 38.967C38.3499 41.0104 36.0901 41.6915 36.0901 38.967C36.0901 36.2425 36.2033 32.1555 36.0901 29.2039C30.7798 28.8633 27.0512 30.7932 27.0512 21.8248ZM31.6836 27.1605C29.311 27.0469 29.311 25.5711 29.311 23.9817C29.311 23.1114 29.198 20.1219 29.3108 15.9215C29.4938 9.10958 34.8475 6.83948 36.2033 6.49898L36.0901 27.1605C35.4875 27.1227 33.7152 27.2578 31.6836 27.1605Z" stroke="#94A684" stroke-linejoin="round"/>
</svg>
