<svg width="32" height="32" viewBox="0 0 32 32" fill="none" xmlns="http://www.w3.org/2000/svg">
<path d="M16 32C24.8366 32 32 24.8366 32 16C32 7.16344 24.8366 0 16 0C7.16344 0 0 7.16344 0 16C0 24.8366 7.16344 32 16 32Z" fill="#CEEDC7"/>
<g opacity="0.81">
<path d="M5.59256 10.539C5.54803 10.539 5.50307 10.5345 5.45767 10.5248C5.10894 10.4508 4.88649 10.1079 4.9605 9.75936C5.43336 7.53443 6.74826 5.69546 8.763 4.4408C10.4127 3.41353 12.4883 2.82965 14.4553 2.83998C14.8117 2.8417 15.0991 3.13213 15.0974 3.48861C15.0957 3.84401 14.807 4.13079 14.452 4.13079C14.4509 4.13079 14.4499 4.13079 14.4486 4.13079C14.4361 4.13079 14.4232 4.13079 14.4105 4.13079C11.6084 4.13079 7.1439 5.69482 6.22291 10.0278C6.1588 10.3312 5.89074 10.539 5.59256 10.539Z" fill="white"/>
</g>
<path d="M22.6065 12.8063C22.4402 12.8063 22.2827 12.7093 22.2124 12.549C22.1906 12.5023 22.1315 12.3864 22.1099 12.3548C21.8002 11.8995 21.1038 11.6054 20.3359 11.6054C19.6223 11.6054 18.9677 11.8595 18.6271 12.2685C18.5591 12.35 18.5064 12.4354 18.4705 12.5228C18.3795 12.7422 18.128 12.8466 17.9084 12.7558C17.6887 12.6648 17.5846 12.4133 17.6754 12.1936C17.7446 12.0262 17.8423 11.8662 17.9658 11.718C18.4731 11.1087 19.359 10.7451 20.3359 10.7451C21.3966 10.7451 22.3487 11.1765 22.8214 11.8707C22.8956 11.9798 22.9948 12.1887 23.0064 12.2179C23.0938 12.4389 22.9853 12.6889 22.7644 12.7762C22.7125 12.7966 22.6592 12.8063 22.6065 12.8063ZM22.2063 12.534C22.2072 12.5361 22.2089 12.5408 22.2119 12.5475C22.21 12.543 22.208 12.5385 22.2063 12.534Z" fill="#542A1A"/>
<path d="M13.9305 12.8061C13.7642 12.8061 13.6067 12.7091 13.5366 12.549C13.5148 12.5023 13.4555 12.3862 13.4342 12.3548C13.1244 11.8995 12.428 11.6054 11.6602 11.6054C10.9466 11.6054 10.2919 11.8595 9.95135 12.2685C9.88337 12.35 9.83066 12.4354 9.79473 12.5228C9.70373 12.7424 9.45224 12.8466 9.23258 12.7558C9.01293 12.6648 8.90881 12.4133 8.99959 12.1936C9.06887 12.0262 9.16654 11.8662 9.29003 11.718C9.79731 11.1087 10.6832 10.7451 11.6602 10.7451C12.7208 10.7451 13.673 11.1765 14.1456 11.8707C14.2196 11.9793 14.3188 12.1882 14.3304 12.2175C14.418 12.4384 14.3098 12.6884 14.0888 12.776C14.0368 12.7962 13.9832 12.8061 13.9305 12.8061ZM13.5303 12.5342C13.5312 12.5363 13.5329 12.5408 13.5357 12.5473C13.5338 12.543 13.5321 12.5387 13.5303 12.5342Z" fill="#542A1A"/>
<path d="M8.01921 20.2166C9.45261 20.2166 10.6146 19.0547 10.6146 17.6213C10.6146 16.1879 9.45261 15.0259 8.01921 15.0259C6.58582 15.0259 5.42383 16.1879 5.42383 17.6213C5.42383 19.0547 6.58582 20.2166 8.01921 20.2166Z" fill="#EA6726"/>
<path d="M24.0016 20.2166C25.435 20.2166 26.597 19.0547 26.597 17.6213C26.597 16.1879 25.435 15.0259 24.0016 15.0259C22.5682 15.0259 21.4062 16.1879 21.4062 17.6213C21.4062 19.0547 22.5682 20.2166 24.0016 20.2166Z" fill="#EA6726"/>
<path d="M16.0544 24.9308C15.1171 24.9308 14.1954 24.785 13.3155 24.4974C12.4591 24.2175 11.6579 23.8089 10.934 23.2831C10.2131 22.7593 9.58574 22.1315 9.06942 21.4168C8.54256 20.6875 8.14305 19.8838 7.88209 19.028C7.81282 18.8006 7.94082 18.5603 8.16822 18.491C8.3954 18.4217 8.63592 18.5497 8.7052 18.7771C9.67051 21.9433 12.6239 24.0703 16.0542 24.0703C19.4566 24.0703 22.3781 21.9439 23.3242 18.7793C23.3922 18.5517 23.6321 18.4222 23.8597 18.4904C24.0873 18.5583 24.2168 18.7982 24.1486 19.0258C23.8922 19.8834 23.5002 20.6875 22.9833 21.4158C22.4751 22.1317 21.857 22.7599 21.1458 23.2833C19.6812 24.3612 17.9205 24.9308 16.0544 24.9308Z" fill="#542A1A"/>
<path d="M18.079 22.9307C17.763 22.6785 17.2907 22.7685 17.0104 23.1196L17.6195 22.3563C17.9215 21.9778 17.8914 21.4521 17.5526 21.1816C17.2141 20.9116 16.692 20.9968 16.39 21.3753L13.8978 24.4829L16.6593 21.0377C17.0061 20.6029 16.9717 19.9977 16.5821 19.6871C16.1927 19.3764 15.5961 19.478 15.2491 19.9128L14.8845 20.3697C15.1766 20.0033 15.1467 19.4943 14.8178 19.2319C14.4895 18.9698 13.9824 19.0507 13.6991 19.4059L10.7493 23.0869C10.6814 22.967 10.6652 22.7474 10.8003 22.1601C11.1306 20.7193 10.5686 19.9438 9.87999 20.0733C9.12422 20.2159 9.50866 21.2397 9.23071 22.1988C8.99966 22.9946 8.82647 23.8117 8.60402 24.5451C8.29014 25.5766 8.36716 26.5054 8.68405 27.285C8.28046 28.1193 7.47693 28.99 7.14648 29.3292C8.30606 30.1009 9.72896 30.8042 11.0794 31.2293C11.3709 30.8894 11.7121 30.2928 12.3439 29.7832C12.7079 29.7685 13.0534 29.6831 13.3557 29.5172C14.6988 28.7802 15.8794 26.8451 15.8794 26.8451C15.8954 26.8251 15.9063 26.8025 15.9139 26.7784L18.1319 24.0145C18.412 23.663 18.3946 23.1826 18.079 22.9307Z" fill="#86C8BC"/>
</svg>
