<svg width="124" height="113" viewBox="0 0 124 113" fill="none" xmlns="http://www.w3.org/2000/svg">
<g filter="url(#filter0_d_321_543)">
<path d="M11.7807 35.2502C0 23 6.19416 9.57051 15.3828 5.12247C34.8827 -4.8774 56.8376 10.983 60.3711 18.0609C68.3222 7.31764 72.7399 2.79877 88.3893 1.25086C103.5 -0.243861 114.351 10.983 117.039 20.0832C123.981 43.592 102.272 55.5992 92.3018 60.4021C81.7007 63.4355 69.3318 65.0786 57.7207 57.4951C46.0085 52.2372 51.9992 58.2534 56.4586 61.9188C56.122 62.972 53.9092 64.4466 47.7502 61.9188C40.0515 58.759 34.3721 57.116 47.7502 65.837C33.11 61.6661 31.2169 62.5508 47.7502 68.8704C28.0617 64.5731 37.1487 69.5023 48.6337 72.5357C36.0128 71.9038 38.6632 75.3164 44.9736 76.2011C51.284 77.0858 63.2742 75.0636 86.3704 72.0302C103.282 68.9968 96.4671 77.7178 89.2728 83.1526L59.74 103.122C45.8574 92.8848 17.965 76.7066 18.4698 65.0786C20.8681 49.9116 35.6345 53.0714 56.9634 52.5658C77.662 51.4283 65.7984 48.1421 59.4879 49.406C79.7752 43.9315 70.3623 42.9421 61.4122 45.5467C60.9069 45.7053 60.5636 45.8103 60.3711 45.8671C60.7162 45.7549 61.0639 45.648 61.4122 45.5467C62.7834 45.116 65.3478 44.29 69.3319 42.9601C73.8754 41.4434 72.1088 38.4518 69.3319 39.5475C65.1673 41.1906 53.1775 45.1087 66.6815 39.5475C73.8757 36.5847 68.3225 34.7446 56.8376 39.4211C51.4106 40.4322 52.6727 38.2836 56.4589 35.7557C59.1093 33.9863 57.3424 31.0793 50.9058 34.4918C39.7994 40.9378 24.4018 47.7629 11.7807 35.2502Z" fill="#F9C0C0"/>
<path d="M15.3828 5.12247C6.19416 9.57051 0 23 11.7807 35.2502C24.4018 47.7629 39.7994 40.9378 50.9058 34.4918C57.3424 31.0793 59.1093 33.9863 56.4589 35.7557C52.6727 38.2836 51.4106 40.4322 56.8376 39.4211C68.3225 34.7446 73.8757 36.5847 66.6815 39.5475C53.1775 45.1087 65.1673 41.1906 69.3319 39.5475C72.1088 38.4518 73.8754 41.4434 69.3319 42.9601C63.8796 44.7801 61.0862 45.6564 60.3711 45.8671C69.5846 42.8718 80.5648 43.7184 59.4879 49.406C65.7984 48.1421 77.662 51.4283 56.9634 52.5658C35.6345 53.0714 20.8681 49.9116 18.4698 65.0786C17.965 76.7066 45.8574 92.8848 59.74 103.122L89.2728 83.1526C96.4671 77.7178 103.282 68.9968 86.3704 72.0302C63.2742 75.0636 51.284 77.0858 44.9736 76.2011C38.6632 75.3164 36.0128 71.9038 48.6337 72.5357C37.1487 69.5023 28.0617 64.5731 47.7502 68.8704C31.2169 62.5508 33.11 61.6661 47.7502 65.837C34.3721 57.116 40.0515 58.759 47.7502 61.9188C53.9092 64.4466 56.122 62.972 56.4586 61.9188C51.9992 58.2534 46.0085 52.2372 57.7207 57.4951C69.3318 65.0786 81.7007 63.4355 92.3018 60.4021C102.272 55.5992 123.981 43.592 117.039 20.0832C114.351 10.983 103.5 -0.243861 88.3893 1.25086C72.7399 2.79877 68.3222 7.31764 60.3711 18.0609C56.8376 10.983 34.8827 -4.8774 15.3828 5.12247Z" stroke="#FF0000" stroke-width="1.5"/>
</g>
<defs>
<filter id="filter0_d_321_543" x="0.560547" y="0.365723" width="122.573" height="111.675" filterUnits="userSpaceOnUse" color-interpolation-filters="sRGB">
<feFlood flood-opacity="0" result="BackgroundImageFix"/>
<feColorMatrix in="SourceAlpha" type="matrix" values="0 0 0 0 0 0 0 0 0 0 0 0 0 0 0 0 0 0 127 0" result="hardAlpha"/>
<feOffset dy="4"/>
<feGaussianBlur stdDeviation="2"/>
<feComposite in2="hardAlpha" operator="out"/>
<feColorMatrix type="matrix" values="0 0 0 0 1 0 0 0 0 0.503564 0 0 0 0 0.503564 0 0 0 1 0"/>
<feBlend mode="normal" in2="BackgroundImageFix" result="effect1_dropShadow_321_543"/>
<feBlend mode="normal" in="SourceGraphic" in2="effect1_dropShadow_321_543" result="shape"/>
</filter>
</defs>
</svg>
