<svg width="45" height="45" viewBox="0 0 45 45" fill="none" xmlns="http://www.w3.org/2000/svg">
<path d="M22.5186 12.2258C12.6618 0.844143 1.27981 12.8128 7.14696 22.0827C14.3425 22.0827 14.6946 23.1434 17.2383 15.981C17.426 16.3565 20.9539 23.53 22.5185 27.0111C23.8092 24.4296 24.2786 23.7256 27.0949 18.4451C29.3245 23.3739 30.615 22.0827 37.7727 22.0827C44.1091 12.578 31.7885 0.844066 22.5186 12.2258Z" stroke="#94A684" stroke-width="3" stroke-linejoin="round"/>
<path d="M19.6225 36.403L8.82715 26.1943H11.9187L22.4187 35.9253L33.1638 26.1943H35.6982C32.7255 28.9714 26.5221 34.8541 24.5508 36.6377C22.8648 38.1631 21.1479 37.9284 19.6225 36.403Z" fill="#94A684" stroke="#94A684" stroke-linejoin="round"/>
</svg>
