<svg width="24" height="24" viewBox="0 0 24 24" fill="none" xmlns="http://www.w3.org/2000/svg">
<path fill-rule="evenodd" clip-rule="evenodd" d="M20.4174 4.0508C20.7104 4.33208 20.7104 4.78808 20.4174 5.06936L4.6434 20.2114C4.4974 20.3526 4.3054 20.4226 4.1134 20.4226C3.9214 20.4226 3.7294 20.3526 3.5834 20.2114C3.2904 19.9302 3.2904 19.4751 3.5834 19.1938L5.55535 17.3019C4.14153 16.0605 2.94222 14.387 2.0615 12.4164C1.9795 12.234 1.9795 12.0286 2.0615 11.8472C3.0825 9.57772 4.5205 7.699 6.2205 6.41548C9.51333 3.91376 13.8423 3.78097 17.2687 6.05579L19.3574 4.0508C19.6504 3.76952 20.1244 3.76952 20.4174 4.0508ZM20.0472 8.67896C20.7712 9.60152 21.4072 10.6681 21.9382 11.845C22.0212 12.0274 22.0212 12.2348 21.9382 12.4162C19.8422 17.079 16.1272 19.862 12.0002 19.862C11.0632 19.862 10.1312 19.7161 9.2312 19.429C8.8382 19.3033 8.6252 18.8953 8.7562 18.518C8.8872 18.1398 9.3102 17.9391 9.7052 18.062C10.4522 18.301 11.2242 18.422 12.0002 18.422C15.4282 18.422 18.5612 16.0777 20.4302 12.1311C19.9742 11.1721 19.4432 10.3033 18.8492 9.54488C18.6002 9.22712 18.6662 8.77496 18.9972 8.53592C19.3272 8.29688 19.7982 8.36216 20.0472 8.67896ZM7.1495 7.54636C5.7135 8.63116 4.4805 10.2113 3.5705 12.1332C4.36394 13.8156 5.40632 15.2344 6.61705 16.2821L8.75486 14.23C8.31993 13.6157 8.0859 12.8914 8.0859 12.1329C8.0859 10.0593 9.8419 8.37253 11.9999 8.37253C12.7829 8.37253 13.5488 8.6014 14.1865 9.01506L16.188 7.09372C13.3352 5.32326 9.86299 5.48477 7.1495 7.54636ZM15.2375 11.9629C15.6455 12.033 15.9165 12.4074 15.8435 12.7991C15.5565 14.3284 14.2945 15.5418 12.7025 15.8202C12.6575 15.8279 12.6115 15.8317 12.5675 15.8317C12.2125 15.8317 11.8965 15.5879 11.8305 15.2404C11.7565 14.8497 12.0265 14.4743 12.4345 14.4033C13.4145 14.2324 14.1905 13.4855 14.3665 12.5437C14.4405 12.153 14.8305 11.8957 15.2375 11.9629ZM11.9999 9.81253C10.6689 9.81253 9.5859 10.8532 9.5859 12.1329C9.5859 12.5028 9.67663 12.8599 9.84765 13.1807L13.0933 10.0645C12.7591 9.90101 12.3833 9.81253 11.9999 9.81253Z" fill="#94A684"/>
</svg>
