<svg width="353" height="61" viewBox="0 0 353 61" fill="none" xmlns="http://www.w3.org/2000/svg">
<path d="M3.73636 5.60299C3.29473 4.2457 2.92006 3.00436 2.62863 2.00006H150.511L129.097 58.7001H2.50389C2.65916 58.0809 2.85063 57.3556 3.08167 56.5424C3.88102 53.7288 5.14904 49.8802 7.02067 45.7423C8.82844 41.7455 11.6692 37.9681 14.1126 35.1507C15.3255 33.752 16.4218 32.6113 17.212 31.8228C17.6068 31.4289 17.9243 31.1239 18.1406 30.9196C18.2488 30.8175 18.3316 30.7406 18.386 30.6904L18.446 30.6353L18.4593 30.6232L18.4612 30.6215L18.4616 30.6212L18.4617 30.6211L18.4618 30.621L20.1811 29.071L18.3972 27.5953L18.3971 27.5952L18.397 27.5952L18.3968 27.595L18.3946 27.5931L18.382 27.5826L18.3264 27.5361C18.2763 27.4939 18.2004 27.4296 18.1015 27.3449C17.9036 27.1752 17.6138 26.9236 17.2539 26.6018C16.5333 25.9575 15.5354 25.0355 14.432 23.9296C12.1996 21.6924 9.63851 18.8045 8.02304 15.9983C6.38566 13.1539 4.86512 9.07209 3.73636 5.60299Z" fill="white" stroke="#94A684" stroke-width="4"/>
<path d="M2.59921 1.21406C5.71825 13.3541 11.4365 29.1361 41.5872 39.4551" stroke="#94A684" stroke-width="4"/>
<path d="M54.04 40.7121H48.92V20.4561H58.584C61.1227 20.4561 62.968 21.0321 64.12 22.1841C65.2933 23.3147 65.88 24.9894 65.88 27.2081C65.88 28.8721 65.464 30.3014 64.632 31.4961C63.8 32.6694 62.7013 33.4054 61.336 33.7041L61.304 33.8001C61.8373 34.1414 62.424 34.7067 63.064 35.4961C63.704 36.2854 64.3333 37.1494 64.952 38.0881C65.592 39.0054 66.1573 39.8694 66.648 40.6801V40.7121H60.696L57.24 35.5921C56.9413 35.1441 56.696 34.8241 56.504 34.6321C56.3333 34.4401 56.12 34.3227 55.864 34.2801C55.6293 34.2374 55.2453 34.2161 54.712 34.2161H54.04V40.7121ZM57.752 24.6161H54.04V30.0561H57.752C58.8187 30.0561 59.5547 29.8427 59.96 29.4161C60.3867 28.9894 60.6 28.2961 60.6 27.3361C60.6 26.3761 60.3867 25.6827 59.96 25.2561C59.5547 24.8294 58.8187 24.6161 57.752 24.6161ZM88.105 40.6161V40.7121H82.665C82.5157 40.2001 82.3343 39.6134 82.121 38.9521C81.929 38.2907 81.7157 37.5867 81.481 36.8401H74.569C74.1423 38.3334 73.7477 39.6241 73.385 40.7121H67.945V40.6481L74.505 20.4561H81.545L88.105 40.6161ZM77.961 24.1041C77.7477 25.1921 77.4383 26.5147 77.033 28.0721C76.6277 29.6294 76.201 31.2187 75.753 32.8401H80.329C79.8597 31.2187 79.4223 29.6294 79.017 28.0721C78.6117 26.5147 78.3023 25.1921 78.089 24.1041H77.961ZM103.478 20.4561H108.598V40.7121H103.51L97.7495 32.1361C97.3015 31.4534 96.9282 30.8774 96.6295 30.4081C96.3308 29.9387 96.0535 29.4694 95.7975 29.0001C95.5415 28.5307 95.2535 27.9761 94.9335 27.3361L94.8375 27.4641C95.1362 28.4881 95.3175 29.4481 95.3815 30.3441C95.4455 31.2187 95.4775 32.0721 95.4775 32.9041V40.7121H90.3575V20.4561H95.4455L101.206 29.0321C101.654 29.6934 102.027 30.2694 102.326 30.7601C102.624 31.2294 102.902 31.6987 103.158 32.1681C103.414 32.6374 103.702 33.1921 104.022 33.8321L104.118 33.7041C103.904 32.8081 103.744 31.9441 103.638 31.1121C103.531 30.2587 103.478 29.4161 103.478 28.5841V20.4561ZM117.571 40.7121H112.451V20.4561H117.571V28.9361C117.614 28.9361 117.646 28.9361 117.667 28.9361C117.881 28.9361 118.126 28.7654 118.403 28.4241C118.702 28.0827 118.969 27.7414 119.203 27.4001L123.491 20.4561H129.059V20.5521L125.411 26.4401C125.091 26.9734 124.729 27.5494 124.323 28.1681C123.918 28.7654 123.513 29.2987 123.107 29.7681C122.723 30.2161 122.382 30.4934 122.083 30.6001V30.6961C122.382 30.8241 122.723 31.1014 123.107 31.5281C123.513 31.9334 123.918 32.4134 124.323 32.9681C124.75 33.5014 125.155 34.0347 125.539 34.5681L129.795 40.6161V40.7121H123.907L119.907 34.5681V34.6001C119.779 34.3867 119.577 34.1094 119.299 33.7681C119.043 33.4054 118.766 33.0747 118.467 32.7761C118.19 32.4774 117.945 32.3281 117.731 32.3281C117.689 32.3281 117.657 32.3281 117.635 32.3281C117.614 32.3281 117.593 32.3281 117.571 32.3281V40.7121Z" fill="#94A684"/>
<path fill-rule="evenodd" clip-rule="evenodd" d="M316.063 60.7001C321.25 60.1038 325.972 57.9015 329.41 54.5488L351.551 32.4045C352.721 31.2298 352.764 29.5774 351.604 28.3603L330.014 6.26044C326.55 2.74744 321.602 0.507365 316.063 6.10352e-05V60.7001Z" fill="#94A684"/>
<path d="M159.071 6.10352e-05H316.063V60.7001H136.198L159.071 6.10352e-05Z" fill="#94A684"/>
<path d="M169.564 40.4015V34.5215L163.414 21.5015V21.4115H168.664C169.284 23.0315 169.774 24.3315 170.134 25.3115C170.514 26.2715 170.804 27.0315 171.004 27.5915C171.224 28.1315 171.394 28.5715 171.514 28.9115C171.634 29.2515 171.764 29.6115 171.904 29.9915H172.024C172.164 29.6115 172.294 29.2515 172.414 28.9115C172.534 28.5715 172.694 28.1315 172.894 27.5915C173.114 27.0315 173.404 26.2715 173.764 25.3115C174.144 24.3315 174.644 23.0315 175.264 21.4115H180.514V21.5015L174.364 34.5215V40.4015H169.564ZM181.724 30.8915C181.724 28.4715 181.994 26.5515 182.534 25.1315C183.094 23.7115 184.044 22.6915 185.384 22.0715C186.744 21.4515 188.634 21.1415 191.054 21.1415C192.874 21.1415 194.384 21.3115 195.584 21.6515C196.784 21.9915 197.734 22.5415 198.434 23.3015C199.134 24.0615 199.624 25.0715 199.904 26.3315C200.204 27.5715 200.354 29.0915 200.354 30.8915C200.354 32.7115 200.204 34.2515 199.904 35.5115C199.624 36.7515 199.134 37.7515 198.434 38.5115C197.734 39.2715 196.784 39.8215 195.584 40.1615C194.384 40.5015 192.874 40.6715 191.054 40.6715C189.234 40.6715 187.724 40.5015 186.524 40.1615C185.324 39.8215 184.374 39.2715 183.674 38.5115C182.974 37.7515 182.474 36.7515 182.174 35.5115C181.874 34.2515 181.724 32.7115 181.724 30.8915ZM191.054 36.4715C192.334 36.4715 193.294 36.3115 193.934 35.9915C194.574 35.6715 195.004 35.1115 195.224 34.3115C195.444 33.4915 195.554 32.3515 195.554 30.8915C195.554 29.4515 195.444 28.3315 195.224 27.5315C195.004 26.7315 194.574 26.1715 193.934 25.8515C193.294 25.5115 192.334 25.3415 191.054 25.3415C189.794 25.3415 188.834 25.5115 188.174 25.8515C187.534 26.1715 187.094 26.7315 186.854 27.5315C186.634 28.3315 186.524 29.4515 186.524 30.8915C186.524 32.3515 186.634 33.4915 186.854 34.3115C187.094 35.1115 187.534 35.6715 188.174 35.9915C188.834 36.3115 189.794 36.4715 191.054 36.4715ZM219.799 21.4115V32.6015C219.799 34.5615 219.559 36.1315 219.079 37.3115C218.619 38.4915 217.809 39.3515 216.649 39.8915C215.489 40.4115 213.849 40.6715 211.729 40.6715C209.529 40.6715 207.819 40.4115 206.599 39.8915C205.399 39.3515 204.559 38.4915 204.079 37.3115C203.599 36.1315 203.359 34.5615 203.359 32.6015V21.4115H208.159V32.5115C208.159 33.5315 208.259 34.3315 208.459 34.9115C208.659 35.4915 209.019 35.9015 209.539 36.1415C210.059 36.3615 210.789 36.4715 211.729 36.4715C212.609 36.4715 213.279 36.3615 213.739 36.1415C214.219 35.9015 214.549 35.4915 214.729 34.9115C214.909 34.3315 214.999 33.5315 214.999 32.5115V21.4115H219.799ZM228.198 40.4015H223.398V21.4115H232.458C234.838 21.4115 236.568 21.9515 237.648 23.0315C238.748 24.0915 239.298 25.6615 239.298 27.7415C239.298 29.3015 238.908 30.6415 238.128 31.7615C237.348 32.8615 236.318 33.5515 235.038 33.8315L235.008 33.9215C235.508 34.2415 236.058 34.7715 236.658 35.5115C237.258 36.2515 237.848 37.0615 238.428 37.9415C239.028 38.8015 239.558 39.6115 240.018 40.3715V40.4015H234.438L231.198 35.6015C230.918 35.1815 230.688 34.8815 230.508 34.7015C230.348 34.5215 230.148 34.4115 229.908 34.3715C229.688 34.3315 229.328 34.3115 228.828 34.3115H228.198V40.4015ZM231.678 25.3115H228.198V30.4115H231.678C232.678 30.4115 233.368 30.2115 233.748 29.8115C234.148 29.4115 234.348 28.7615 234.348 27.8615C234.348 26.9615 234.148 26.3115 233.748 25.9115C233.368 25.5115 232.678 25.3115 231.678 25.3115Z" fill="white"/>
<path d="M270.24 21.4115V32.6015C270.24 34.5615 270 36.1315 269.52 37.3115C269.06 38.4915 268.25 39.3515 267.09 39.8915C265.93 40.4115 264.29 40.6715 262.17 40.6715C259.97 40.6715 258.26 40.4115 257.04 39.8915C255.84 39.3515 255 38.4915 254.52 37.3115C254.04 36.1315 253.8 34.5615 253.8 32.6015V21.4115H258.6V32.5115C258.6 33.5315 258.7 34.3315 258.9 34.9115C259.1 35.4915 259.46 35.9015 259.98 36.1415C260.5 36.3615 261.23 36.4715 262.17 36.4715C263.05 36.4715 263.72 36.3615 264.18 36.1415C264.66 35.9015 264.99 35.4915 265.17 34.9115C265.35 34.3315 265.44 33.5315 265.44 32.5115V21.4115H270.24ZM286.139 21.4115H290.939V40.4015H286.169L280.769 32.3615C280.349 31.7215 279.999 31.1815 279.719 30.7415C279.439 30.3015 279.179 29.8615 278.939 29.4215C278.699 28.9815 278.429 28.4615 278.129 27.8615L278.039 27.9815C278.319 28.9415 278.489 29.8415 278.549 30.6815C278.609 31.5015 278.639 32.3015 278.639 33.0815V40.4015H273.839V21.4115H278.609L284.009 29.4515C284.429 30.0715 284.779 30.6115 285.059 31.0715C285.339 31.5115 285.599 31.9515 285.839 32.3915C286.079 32.8315 286.349 33.3515 286.649 33.9515L286.739 33.8315C286.539 32.9915 286.389 32.1815 286.289 31.4015C286.189 30.6015 286.139 29.8115 286.139 29.0315V21.4115ZM299.352 40.4015H294.552V21.4115H299.352V40.4015Z" fill="white"/>
<path fill-rule="evenodd" clip-rule="evenodd" d="M321.261 48.5601C324.373 48.2023 327.207 46.8809 329.27 44.8693L342.554 31.5827C343.256 30.8779 343.282 29.8864 342.586 29.1562L329.632 15.8963C327.553 13.7885 324.584 12.4444 321.261 12.1401V48.5601Z" fill="white"/>
<path d="M316.695 23.6315L317.455 22.2615L318.311 20.7202C318.881 19.6927 318.589 19.1722 317.781 18.1861C316.973 17.2 311.809 11.361 309.328 8.56479C308.544 7.68177 307.271 7.03885 306.368 6.92163C305.104 6.75753 297.075 5.49676 293.081 4.69857C292.338 4.58458 291.033 4.72642 291.761 6.20569C292.032 6.75745 293.419 8.14513 294.7 9.62968M294.7 9.62968C296.854 12.1252 299.199 15.0396 301.039 16.957C301.752 17.6996 302.5 18.2482 303.629 18.3947C304.893 18.5588 309.33 19.1697 311.435 19.5916C312.27 19.8312 312.915 20.4132 312.344 21.4407C311.584 22.8107 310.57 24.6374 310.158 25.3795C308.922 27.6058 306.554 27.827 304.366 27.0931C300.286 25.7242 296.771 23.7729 293.542 21.3079C292.252 20.1438 290.137 17.8498 291.658 15.1098C293.274 12.1985 294.51 9.97218 294.7 9.62968ZM314.133 27.8101L314.561 27.0395L314.893 26.4401" stroke="white" stroke-opacity="0.1" stroke-width="2" stroke-linecap="round" stroke-linejoin="round"/>
</svg>
