<svg width="45" height="45" viewBox="0 0 45 45" fill="none" xmlns="http://www.w3.org/2000/svg">
<path d="M7.86206 19.5838C11.6627 15.9478 16.8184 13.7124 22.5029 13.7124C28.1873 13.7124 33.343 15.9478 37.1437 19.5838C37.8487 20.2538 38.9614 20.2319 39.6334 19.5343C40.3054 18.8368 40.2833 17.7218 39.5838 17.0518C35.1552 12.8062 29.1347 10.1973 22.5029 10.1973C15.871 10.1973 9.85052 12.8062 5.41642 17.0463C4.71688 17.7218 4.69484 18.8313 5.36684 19.5343C6.03885 20.2374 7.15701 20.2593 7.85655 19.5838H7.86206ZM22.5029 22.5002C25.6315 22.5002 28.4848 23.6591 30.666 25.576C31.3986 26.2186 32.5113 26.1472 33.1557 25.4222C33.8002 24.6972 33.7286 23.5822 33.0015 22.9396C30.2033 20.479 26.5238 18.9851 22.5029 18.9851C18.4819 18.9851 14.8024 20.479 12.0097 22.9396C11.2771 23.5822 11.211 24.6917 11.8555 25.4222C12.5 26.1527 13.6126 26.2186 14.3452 25.576C16.521 23.6591 19.3742 22.5002 22.5084 22.5002H22.5029ZM26.0281 31.288C26.0281 30.3558 25.6567 29.4617 24.9956 28.8025C24.3345 28.1433 23.4378 27.7729 22.5029 27.7729C21.5679 27.7729 20.6712 28.1433 20.0101 28.8025C19.349 29.4617 18.9776 30.3558 18.9776 31.288C18.9776 32.2203 19.349 33.1144 20.0101 33.7736C20.6712 34.4328 21.5679 34.8032 22.5029 34.8032C23.4378 34.8032 24.3345 34.4328 24.9956 33.7736C25.6567 33.1144 26.0281 32.2203 26.0281 31.288Z" fill="#94A684"/>
</svg>
