<svg width="47" height="47" viewBox="0 0 47 47" fill="none" xmlns="http://www.w3.org/2000/svg">
<path d="M18.868 32.5525C17.7701 31.5527 16.233 32.6636 17.2211 33.8857C19.7463 36.7742 23.0401 39.1073 27.1025 38.9962C31.7138 38.6629 36.2153 39.9961 36.6544 34.4412C39.0699 32.8858 38.8503 30.8861 38.5209 28.9974C40.1678 27.5532 39.9482 25.4423 39.7286 24.3313C41.2657 23.4425 42.2539 17.6655 37.5328 16.8878C33.7559 16.7989 30.689 16.7767 29.6277 16.7767C31.0184 13.9622 32.2627 8.33329 27.9808 8C26.0045 8 25.1262 8.22219 24.3576 9.44427C23.0401 10.9996 23.4793 14.497 19.1974 17.4433C17.0015 18.9542 16.6722 20.2207 17.2211 20.7762C17.5505 21.1095 18.0995 21.3317 19.5268 19.9985L19.6038 19.9354C21.8812 18.0701 24.0393 16.3026 25.0164 13.666C26.0045 10.9996 26.4437 10.1109 27.3221 10.2219C28.7494 10.4441 29.5179 10.8885 28.3102 14.7769C26.6633 18.3321 26.6633 17.8877 26.9927 18.4432C27.3221 18.9986 27.7612 18.9986 28.7494 18.9986H36.6544C38.6307 18.9986 40.2776 21.1095 37.6426 23.3314C37.0936 24.2202 38.1915 25.109 37.6426 26.5533C37.1507 27.8474 36.4151 27.2608 36.1055 28.553C35.9425 29.2332 36.8104 29.6233 36.6544 30.8861C36.4349 32.6636 35.1173 32.6636 34.6782 33.4413C34.239 34.219 35.5565 36.7742 31.604 36.8853C27.5416 36.7742 24.687 37.3297 22.1618 35.2189C20.1416 33.5302 19.1242 32.7377 18.868 32.5525Z" fill="#333333"/>
<path fill-rule="evenodd" clip-rule="evenodd" d="M7.99854 18.9986C7.33978 18.9986 6.02227 19.4653 6.02227 21.3317V36.8853C5.91247 37.589 6.15402 38.9962 7.99854 38.9962H12.7196C13.415 38.8481 14.8057 38.2185 14.8057 36.8853V21.1095C14.6959 20.4059 14.081 18.9986 12.5 18.9986H7.99854ZM8.2181 36.7742V21.3317H12.5L12.7196 36.7742H8.2181Z" fill="#333333"/>
</svg>
