<svg width="47" height="47" viewBox="0 0 47 47" fill="none" xmlns="http://www.w3.org/2000/svg">
<path fill-rule="evenodd" clip-rule="evenodd" d="M7.99854 18.9986C7.33978 18.9986 6.02227 19.4653 6.02227 21.3317V36.8853C5.91247 37.589 6.15402 38.9962 7.99854 38.9962H12.7196C13.415 38.8481 14.8057 38.2185 14.8057 36.8853V21.1095C14.6959 20.4059 14.081 18.9986 12.5 18.9986H7.99854Z" fill="#333333"/>
<path d="M17.2211 33.8857C19.7463 36.7742 23.0401 39.1073 27.1025 38.9962C31.7138 38.6629 36.2153 39.9961 36.6544 34.4412C39.0699 32.8858 38.8503 30.8861 38.5209 28.9974C40.1678 27.5532 39.9482 25.4423 39.7286 24.3313C41.2657 23.4425 42.2539 17.6655 37.5328 16.8878C33.7559 16.7989 30.689 16.7767 29.6277 16.7767C31.0184 13.9622 32.2627 8.33329 27.9808 8C26.0045 8 25.1262 8.22219 24.3576 9.44427C23.0401 10.9996 23.4793 14.497 19.1974 17.4433C17.0015 18.9542 17.2211 19.635 17.2211 20.9112V33.8857Z" fill="#333333"/>
</svg>
