<svg width="45" height="45" viewBox="0 0 45 45" fill="none" xmlns="http://www.w3.org/2000/svg">
<path fill-rule="evenodd" clip-rule="evenodd" d="M7.00459 21.7126C4.77844 23.0162 0.735883 25.4336 6.53147 27.7563C12.2089 30.0317 14.811 31.1535 15.4024 31.43V38.4218C15.4024 40.4364 18.3594 43.0435 21.3164 40.1994C23.9658 36.8812 24.8647 35.6567 24.983 35.4592L32.5529 38.4218C33.7751 39.0143 36.3378 39.5831 36.8109 37.1182C37.0948 34.5585 40.0045 15.6688 41.4238 6.54392C41.6819 4.88489 40.241 2.771 37.284 4.29233C33.783 6.09359 15.639 16.6564 7.00459 21.7126ZM16.4669 29.1784L6.17662 24.7937L36.8109 7.37347L16.4669 29.1784ZM34.3271 36.5257L18.9508 30.2449L38.7034 8.91403L34.3271 36.5257ZM17.8863 37.7108V32.378L22.7357 34.5111C22.1837 35.1826 20.7723 36.9049 19.5422 38.4218C18.4777 39.7344 17.6497 38.8958 17.8863 37.7108Z" fill="#94A684" stroke="#94A684" stroke-linejoin="round"/>
</svg>
