<svg width="241" height="202" viewBox="0 0 241 202" fill="none" xmlns="http://www.w3.org/2000/svg">
<path d="M10.5559 126.69C24.0365 140.092 16.1728 152.128 10.5559 156.471C5.25102 162.055 -0.86512 176.946 17.1091 191.836C39.5768 210.45 64.3336 197.738 71.4061 191.836C79 185.5 86.3846 160.194 110.725 179.738C127 194.5 136 199.184 147.5 199.5C158.5 199.802 192.044 202.299 183.619 172.518C175.194 142.737 213.949 165.601 221.191 146.478C228.433 127.354 211.9 126.54 205.342 116.453C197.294 104.073 200.596 99.7008 215.574 87.6022C230.553 75.5036 225.872 59.6825 224.936 55.9597C223.999 52.2369 216.51 33.6238 188.426 41.9998C160.341 50.3757 163.149 44.7918 162.213 22.4559C161.277 0.11997 148.171 -2.67202 136.937 14.0799C125.703 30.8318 123.831 28.9706 107.916 11.288C92.0015 -6.39454 77.9592 1.05075 71.4061 4.7734C64.853 8.49605 61.1084 13.1494 62.9807 36.4159C64.853 59.6825 52.683 54.0985 31.1514 59.6825C13.9261 64.1497 4.62691 77.0548 2.13046 82.949C-0.678009 91.9454 -2.92478 113.289 10.5559 126.69Z" fill="#86C8BC"/>
<path d="M210.893 109.938C209.395 103.237 217.134 102.183 221.191 102.493C222.439 102.493 225.872 103.051 229.616 105.285C234.297 108.077 229.616 111.799 229.616 116.453C229.616 121.106 218.383 121.106 215.574 119.245C212.766 117.383 212.766 118.314 210.893 109.938Z" fill="#86C8BC"/>
<path d="M229.616 90.3942C229.616 91.8833 230.865 92.2555 231.489 92.2555C232.425 92.4857 236.169 94.1169 238.978 93.1862C241.786 92.2555 240.85 90.3942 240.85 86.6716C240.85 82.9489 237.106 84.8102 233.361 83.8796C229.616 82.9489 229.616 88.5329 229.616 90.3942Z" fill="#86C8BC"/>
<path d="M180.936 7.56527C171.949 11.2879 174.695 23.3865 177.192 28.9705C183.745 33.6238 180.936 31.7625 188.426 34.5545C195.915 37.3465 192.17 28.9705 197.787 30.8318C203.404 32.6931 203.404 25.3989 203.404 22.4559C203.404 15.9412 200.596 21.5252 200.596 12.2186C200.596 2.91195 192.17 2.91195 180.936 7.56527Z" fill="#86C8BC"/>
</svg>
