<svg width="36" height="40" viewBox="0 0 36 40" fill="none" xmlns="http://www.w3.org/2000/svg">
<path d="M29.443 18.6876C30.9919 17.7853 34.1269 15.9542 34.4532 15.725C35.1361 15.2452 33.3003 14.4278 33.1142 14.3469L33.0827 14.3335L21.2913 9.38138C20.7401 9.14985 20.1628 8.98585 19.5722 8.89293C18.2347 8.68252 16.8651 8.84226 15.612 9.35483L2.95255 14.5328C2.89018 14.5584 2.82998 14.5889 2.77254 14.6241L2.57222 14.747C2.10468 15.0339 1.95265 15.6421 2.23025 16.1152C2.34504 16.3109 2.5225 16.462 2.73391 16.5442L15.0315 21.3263C17.2267 22.1799 19.6527 22.2313 21.882 21.4714L27.6466 19.5065C28.2711 19.2937 28.8729 19.0197 29.443 18.6876Z" fill="#94A684"/>
<path d="M34.6785 20.3403L34.6785 18.4942V16.4173C34.6785 15.0327 34.1368 14.6635 32.8731 14.1097C31.6093 13.5558 23.7709 10.4943 20.0097 9.03283C18.8219 8.5713 17.3016 8.63724 16.3989 9.03283C15.1351 9.58667 6.99583 12.8789 2.85848 14.3404C2.10623 14.6481 0.962816 15.5404 2.40713 16.6481C2.94584 17.0612 4.95735 17.6977 6.92061 18.4942M6.92061 18.4942C10.2209 19.8332 13.9165 21.4941 16.6246 22.4172C17.6734 22.7747 18.6556 22.9117 19.784 22.4172C21.0478 21.8634 25.5011 19.9557 27.6826 19.1865C28.5853 18.9557 29.488 19.1865 29.488 20.5711C29.488 22.4172 29.4879 24.8787 29.488 25.8787C29.488 28.8786 27.3941 30.4607 24.9745 30.9555C20.461 31.8786 16.1732 31.8786 11.8854 31.1863C10.08 30.7247 6.92061 29.5709 6.92061 25.8787C6.92061 21.9557 6.92061 18.9557 6.92061 18.4942ZM34.4528 26.1094V25.071V24.2633" stroke="black" stroke-width="2" stroke-linecap="round" stroke-linejoin="round"/>
</svg>
