<svg width="845" height="403" viewBox="0 0 845 403" fill="none" xmlns="http://www.w3.org/2000/svg">
<path fill-rule="evenodd" clip-rule="evenodd" d="M474.976 24.6522C484.865 22.0202 493.896 19.6167 504.801 21.6248C553.501 30.5925 606.969 28.457 649.95 26.7404C686.841 25.267 716.006 24.1021 727.801 30.5311C821.636 81.6749 816.689 125.858 811.582 171.462C809.532 189.767 807.457 208.301 811.734 227.606C813.329 234.803 819.455 242.163 825.983 250.005C841.748 268.943 859.853 290.693 822.124 319.763C812.445 327.221 796.588 326.722 780.666 326.22C764.612 325.715 748.493 325.208 738.572 332.851C724.174 343.945 728.133 352.749 731.708 360.701C735.332 368.764 738.563 375.95 721.872 383.76C688.719 399.272 670.528 405.477 602.699 401.661C534.871 397.845 464.55 388.763 440.96 383.557C434.535 382.139 419.662 381.563 399.075 380.767C344.074 378.638 248.281 374.93 163.801 349.364C70.9212 321.256 -38.1998 251.091 13.1761 192.015C27.2178 181.195 20.9604 163.084 14.1417 143.348C5.97883 119.722 -2.98852 93.7671 21.101 75.2062C41.7187 59.3203 75.2048 57.6185 110.929 55.803C151.772 53.7273 195.541 51.5029 226.351 27.7638C284.111 -16.7394 354.046 0.757855 408.969 21.6248C440.846 33.7359 459.028 28.8969 474.976 24.6522Z" fill="#FFD4B2" fill-opacity="0.2"/>
</svg>
