<svg width="40" height="40" viewBox="0 0 40 40" fill="none" xmlns="http://www.w3.org/2000/svg">
<path fill-rule="evenodd" clip-rule="evenodd" d="M11.9129 5.01066C10.5742 4.97469 10.6696 5.01066 10.3263 5.65814C9.90677 6.4495 9.45037 7.21688 9.28509 7.52863C8.94184 8.1761 8.88843 8.24804 9.23557 8.67969C9.58265 9.14731 9.88014 9.47105 10.2272 9.86673C10.5376 10.2206 10.9213 10.2388 11.1692 10.1208C11.4172 10.0028 11.6397 9.83076 11.3676 9.50703C11.0955 9.18329 10.9462 9.00349 10.5743 8.57178C10.2023 8.14008 10.1686 8.31993 10.5743 7.60057C10.9313 6.96748 11.1196 6.6293 11.4171 6.08974L19.0032 9.83076L15.4829 12.4926C14.4416 13.2479 14.6896 13.32 13.9458 12.4926C13.2021 11.6652 13.0831 11.4735 12.855 11.1976C12.5575 10.8379 12.2104 10.7706 11.8634 10.9458C11.5163 11.121 11.5163 11.3415 11.8138 11.7012C12.26 12.2408 12.7558 12.8522 13.3012 13.4278C13.7444 13.8954 14.4912 14.1472 15.4829 13.7156C16.7125 14.7227 17.0364 15.0225 17.0695 15.0465L12.2601 29.255C12.0617 29.6866 11.9824 30.5644 12.855 31.1975C13.7277 31.8306 14.8383 32.7322 15.2846 33.1039C15.5324 33.2837 15.8299 33.4276 16.2266 33.1398C16.4347 32.9612 16.5326 32.7144 16.2762 32.5284C15.3242 31.8378 14.1276 30.8737 13.6484 30.4781C13.2997 30.1902 13.2715 29.9745 13.5492 29.255C13.8269 28.5356 16.8051 19.7228 18.2595 15.4062H21.7302L23.3169 20.0825C23.416 20.3342 23.5648 20.622 24.1102 20.5141C24.5068 20.4356 24.674 20.2593 24.5564 19.9026C24.011 18.2479 23.416 16.5932 22.9202 15.0825L24.5068 13.7156C25.1018 13.9674 26.0307 14.1417 26.6884 13.3918C27.3826 12.6005 29.6469 9.97465 30.7542 8.71567C31.0021 8.43384 31.1083 8.21207 30.8534 7.78042C30.6154 7.37755 29.9609 6.17372 29.6634 5.62217C29.3917 5.11852 29.3163 5.01061 28.5726 5.01063C27.8575 5.01065 17.1356 4.98668 11.9129 5.01066ZM19.9949 9.18328L13.2021 5.90993H14.3921H25.6472H26.738L19.9949 9.18328ZM21.0361 9.83076L28.5726 6.12576L29.713 8.21207C28.4569 9.62692 25.9348 12.5645 25.6968 12.8523C25.4588 13.14 25.1845 13.0082 25.1018 12.9243L21.0361 9.83076ZM18.0116 14.435L16.425 13.0681L19.9949 10.4423L23.5152 13.0681L21.9286 14.435H18.0116Z" fill="#333333"/>
<path d="M20.7882 34.8305C20.1139 35.291 19.4495 35.0224 19.2016 34.8305C19.2109 34.8354 19.2188 34.8397 19.2249 34.8432C19.1651 34.805 18.9002 34.6261 18.2099 34.0751C17.7141 33.6794 17.367 33.7154 17.1191 33.8952C16.772 34.1111 16.9207 34.3988 17.2183 34.6147C17.5653 34.8665 17.7562 35.0543 18.7553 35.6938C19.4858 36.1614 20.7882 36.1237 21.7798 35.37C23.1681 34.3149 26.0751 31.9889 27.0851 31.1975C28.0951 30.4061 27.9322 29.8305 27.6801 29.1111C26.9363 26.9888 25.6968 23.1399 25.2506 21.9529C25.0652 21.4598 24.8539 21.3414 24.4076 21.4133C23.8127 21.5572 23.9732 21.9169 24.0606 22.2047C24.7051 24.327 26.0835 28.2766 26.4405 29.255C26.7975 30.2334 26.6388 30.1902 26.0439 30.7298C24.5895 31.9048 21.4625 34.3701 20.7882 34.8305Z" fill="#333333"/>
<path d="M14.3921 5.90993L19.9949 8.71567L25.6472 5.90993H14.3921Z" fill="#94A684"/>
<path d="M18.2595 15.4062C16.8051 19.7228 13.8269 28.5356 13.5492 29.255L17.5 31.5C19.2268 32.5284 20.7882 32.5284 22.5 31.5C23.9454 30.6317 25.3497 30.1063 26.4405 29.255C26.0835 28.2766 24.7051 24.327 24.0606 22.2047C23.9732 21.9169 23.8127 21.5572 24.4076 21.4133L24.1102 20.5141C23.5648 20.622 23.416 20.3342 23.3169 20.0825L21.7302 15.4062H18.2595Z" fill="#94A684"/>
<path d="M10.5743 8.57178C10.9462 9.00349 11.0955 9.18329 11.3676 9.50703C11.6397 9.83076 11.4172 10.0028 11.1692 10.1208L11.8634 10.9458C12.2104 10.7706 12.5575 10.8379 12.855 11.1976C13.0831 11.4735 13.2021 11.6652 13.9458 12.4926C14.6896 13.32 14.4416 13.2479 15.4829 12.4926L19.0032 9.83076L11.4171 6.08974C11.1196 6.6293 10.9313 6.96748 10.5743 7.60057C10.1686 8.31993 10.2023 8.14008 10.5743 8.57178Z" fill="#94A684"/>
<path d="M16.425 13.0681L18.0116 14.435H21.9286L23.5152 13.0681L19.9949 10.4423L16.425 13.0681Z" fill="#CEEDC7"/>
</svg>
