<svg width="51" height="46" viewBox="0 0 51 46" fill="none" xmlns="http://www.w3.org/2000/svg">
<path d="M21.9292 0.897447C25.3853 -1.01916 29.7817 0.24011 31.713 3.66531L50.1878 35.7288C50.5944 36.6858 50.7723 37.464 50.8231 38.2725C50.9248 40.1614 50.2641 41.9974 48.968 43.4103C47.672 44.8181 45.9185 45.6493 44.0126 45.75H6.80888C6.0211 45.7021 5.23331 45.5233 4.49635 45.2463C0.811558 43.7604 -0.967309 39.5796 0.532022 35.9554L19.1339 3.64265C19.7692 2.50679 20.7349 1.52708 21.9292 0.897447ZM25.4107 31.1929C24.1909 31.1929 23.1745 32.2003 23.1745 33.4117C23.1745 34.6181 24.1909 35.628 25.4107 35.628C26.6305 35.628 27.6216 34.6181 27.6216 33.384C27.6216 32.1776 26.6305 31.1929 25.4107 31.1929ZM25.4107 15.4798C24.1909 15.4798 23.1745 16.4595 23.1745 17.6709V24.7958C23.1745 26.0047 24.1909 27.0146 25.4107 27.0146C26.6305 27.0146 27.6216 26.0047 27.6216 24.7958V17.6709C27.6216 16.4595 26.6305 15.4798 25.4107 15.4798Z" fill="white"/>
</svg>
