<svg width="32" height="32" viewBox="0 0 32 32" fill="none" xmlns="http://www.w3.org/2000/svg">
<path d="M16 32C24.8366 32 32 24.8366 32 16C32 7.16344 24.8366 0 16 0C7.16344 0 0 7.16344 0 16C0 24.8366 7.16344 32 16 32Z" fill="#86C8BC"/>
<path d="M25.7274 18.2157C15.2215 16.7504 6.39194 18.2157 6.39194 18.2157C6.39194 18.2157 6.35515 19.1711 6.67118 20.4477C7.32218 22.9902 9.44384 26.8183 16.0597 26.8183C22.6381 26.8183 24.7715 23.042 25.435 20.5004C25.7653 19.1976 25.7274 18.2157 25.7274 18.2157Z" fill="url(#paint0_diamond_103_3217)" stroke="#542A19" stroke-miterlimit="10"/>
<path d="M8.70867 5.10596L10.3359 8.40333L13.9749 8.93191L11.3417 11.4987L11.9632 15.1228L8.70867 13.4117L5.45389 15.1228L6.07542 11.4987L3.44238 8.93191L7.08117 8.40333L8.70867 5.10596Z" fill="#FFF6BD"/>
<path d="M23.3122 5.10596L24.9397 8.40333L28.5785 8.93191L25.9454 11.4987L26.567 15.1228L23.3122 13.4117L20.0576 15.1228L20.6791 11.4987L18.0459 8.93191L21.6849 8.40333L23.3122 5.10596Z" fill="#FFF6BD"/>
<defs>
<radialGradient id="paint0_diamond_103_3217" cx="0" cy="0" r="1" gradientUnits="userSpaceOnUse" gradientTransform="translate(16.0596 22.1915) scale(7.57955)">
<stop offset="0.00485437" stop-color="white"/>
</radialGradient>
</defs>
</svg>
