<svg width="35" height="35" viewBox="0 0 35 35" fill="none" xmlns="http://www.w3.org/2000/svg">
<path fill-rule="evenodd" clip-rule="evenodd" d="M8.46429 4.25377C8.46429 3.55897 7.91496 3 7.23214 3C6.54933 3 6 3.55897 6 4.25377V6.34337V21.3102V23.8961L6 31.7462C6 32.441 6.54933 33 7.23214 33C7.91496 33 8.46429 32.441 8.46429 31.7462V23.2692L12.5868 22.2192C14.6969 21.6811 16.9301 21.9319 18.8759 22.9192C21.1451 24.0737 23.7788 24.2148 26.1507 23.3058L27.9321 22.6266C28.5739 22.3811 29 21.7595 29 21.0594V6.45308C29 5.25155 27.7576 4.46795 26.7 5.00602L26.2071 5.25678C23.8301 6.46875 21.0321 6.46875 18.6551 5.25678C16.8531 4.33735 14.7842 4.10749 12.8281 4.60377L8.46429 5.71649V4.25377ZM13.4237 7.03817L8.46429 8.30238V20.6833L11.9862 19.7848C14.6712 19.1057 17.5 19.4191 19.9746 20.6781C21.6277 21.5192 23.5529 21.6184 25.283 20.9602L26.5357 20.4848V7.85312C23.6453 9.04942 20.3699 8.92926 17.5513 7.49788C16.273 6.8501 14.8098 6.68816 13.4237 7.03817Z" fill="black"/>
</svg>
