<svg width="353" height="61" viewBox="0 0 353 61" fill="none" xmlns="http://www.w3.org/2000/svg">
<path d="M3.73636 5.60293C3.29473 4.24564 2.92006 3.00429 2.62863 2H150.511L129.097 58.7H2.50389C2.65916 58.0809 2.85063 57.3555 3.08167 56.5423C3.88102 53.7287 5.14904 49.8802 7.02067 45.7422C8.82844 41.7455 11.6692 37.968 14.1126 35.1506C15.3255 33.7519 16.4218 32.6112 17.212 31.8228C17.6068 31.4289 17.9243 31.1239 18.1406 30.9195C18.2488 30.8174 18.3316 30.7405 18.386 30.6903L18.446 30.6353L18.4593 30.6232L18.4612 30.6215L18.4616 30.6211L18.4617 30.621L18.4618 30.6209L20.1811 29.0709L18.3972 27.5953L18.3971 27.5952L18.397 27.5951L18.3968 27.5949L18.3946 27.5931L18.382 27.5826L18.3264 27.536C18.2763 27.4938 18.2004 27.4296 18.1015 27.3448C17.9036 27.1752 17.6138 26.9236 17.2539 26.6018C16.5333 25.9575 15.5354 25.0354 14.432 23.9296C12.1996 21.6923 9.63851 18.8045 8.02304 15.9982C6.38566 13.1539 4.86512 9.07203 3.73636 5.60293Z" fill="white" stroke="#94A684" stroke-width="4"/>
<path d="M2.59961 1.21387C5.71865 13.3539 11.4369 29.1359 41.5876 39.4549" stroke="#94A684" stroke-width="4"/>
<path d="M54.04 40.712H48.92V20.456H58.584C61.1227 20.456 62.968 21.032 64.12 22.184C65.2933 23.3147 65.88 24.9893 65.88 27.208C65.88 28.872 65.464 30.3013 64.632 31.496C63.8 32.6693 62.7013 33.4053 61.336 33.704L61.304 33.8C61.8373 34.1413 62.424 34.7067 63.064 35.496C63.704 36.2853 64.3333 37.1493 64.952 38.088C65.592 39.0053 66.1573 39.8693 66.648 40.68V40.712H60.696L57.24 35.592C56.9413 35.144 56.696 34.824 56.504 34.632C56.3333 34.44 56.12 34.3227 55.864 34.28C55.6293 34.2373 55.2453 34.216 54.712 34.216H54.04V40.712ZM57.752 24.616H54.04V30.056H57.752C58.8187 30.056 59.5547 29.8427 59.96 29.416C60.3867 28.9893 60.6 28.296 60.6 27.336C60.6 26.376 60.3867 25.6827 59.96 25.256C59.5547 24.8293 58.8187 24.616 57.752 24.616ZM88.105 40.616V40.712H82.665C82.5157 40.2 82.3343 39.6133 82.121 38.952C81.929 38.2907 81.7157 37.5867 81.481 36.84H74.569C74.1423 38.3333 73.7477 39.624 73.385 40.712H67.945V40.648L74.505 20.456H81.545L88.105 40.616ZM77.961 24.104C77.7477 25.192 77.4383 26.5147 77.033 28.072C76.6277 29.6293 76.201 31.2187 75.753 32.84H80.329C79.8597 31.2187 79.4223 29.6293 79.017 28.072C78.6117 26.5147 78.3023 25.192 78.089 24.104H77.961ZM103.478 20.456H108.598V40.712H103.51L97.7495 32.136C97.3015 31.4533 96.9282 30.8773 96.6295 30.408C96.3308 29.9387 96.0535 29.4693 95.7975 29C95.5415 28.5307 95.2535 27.976 94.9335 27.336L94.8375 27.464C95.1362 28.488 95.3175 29.448 95.3815 30.344C95.4455 31.2187 95.4775 32.072 95.4775 32.904V40.712H90.3575V20.456H95.4455L101.206 29.032C101.654 29.6933 102.027 30.2693 102.326 30.76C102.624 31.2293 102.902 31.6987 103.158 32.168C103.414 32.6373 103.702 33.192 104.022 33.832L104.118 33.704C103.904 32.808 103.744 31.944 103.638 31.112C103.531 30.2587 103.478 29.416 103.478 28.584V20.456ZM117.571 40.712H112.451V20.456H117.571V28.936C117.614 28.936 117.646 28.936 117.667 28.936C117.881 28.936 118.126 28.7653 118.403 28.424C118.702 28.0827 118.969 27.7413 119.203 27.4L123.491 20.456H129.059V20.552L125.411 26.44C125.091 26.9733 124.729 27.5493 124.323 28.168C123.918 28.7653 123.513 29.2987 123.107 29.768C122.723 30.216 122.382 30.4933 122.083 30.6V30.696C122.382 30.824 122.723 31.1013 123.107 31.528C123.513 31.9333 123.918 32.4133 124.323 32.968C124.75 33.5013 125.155 34.0347 125.539 34.568L129.795 40.616V40.712H123.907L119.907 34.568V34.6C119.779 34.3867 119.577 34.1093 119.299 33.768C119.043 33.4053 118.766 33.0747 118.467 32.776C118.19 32.4773 117.945 32.328 117.731 32.328C117.689 32.328 117.657 32.328 117.635 32.328C117.614 32.328 117.593 32.328 117.571 32.328V40.712Z" fill="#94A684"/>
<path fill-rule="evenodd" clip-rule="evenodd" d="M316.062 60.7C321.249 60.1037 325.971 57.9015 329.41 54.5487L351.55 32.4044C352.721 31.2298 352.763 29.5773 351.604 28.3602L330.014 6.26038C326.549 2.74738 321.601 0.507304 316.062 0V60.7Z" fill="#94A684"/>
<path d="M159.071 0H316.063V60.7H136.198L159.071 0Z" fill="#94A684"/>
<path d="M169.565 40.4014V34.5214L163.415 21.5014V21.4114H168.665C169.285 23.0314 169.775 24.3314 170.135 25.3114C170.515 26.2714 170.805 27.0314 171.005 27.5914C171.225 28.1314 171.395 28.5714 171.515 28.9114C171.635 29.2514 171.765 29.6114 171.905 29.9914H172.025C172.165 29.6114 172.295 29.2514 172.415 28.9114C172.535 28.5714 172.695 28.1314 172.895 27.5914C173.115 27.0314 173.405 26.2714 173.765 25.3114C174.145 24.3314 174.645 23.0314 175.265 21.4114H180.515V21.5014L174.365 34.5214V40.4014H169.565ZM181.724 30.8914C181.724 28.4714 181.994 26.5514 182.534 25.1314C183.094 23.7114 184.044 22.6914 185.384 22.0714C186.744 21.4514 188.634 21.1414 191.054 21.1414C192.874 21.1414 194.384 21.3114 195.584 21.6514C196.784 21.9914 197.734 22.5414 198.434 23.3014C199.134 24.0614 199.624 25.0714 199.904 26.3314C200.204 27.5714 200.354 29.0914 200.354 30.8914C200.354 32.7114 200.204 34.2514 199.904 35.5114C199.624 36.7514 199.134 37.7514 198.434 38.5114C197.734 39.2714 196.784 39.8214 195.584 40.1614C194.384 40.5014 192.874 40.6714 191.054 40.6714C189.234 40.6714 187.724 40.5014 186.524 40.1614C185.324 39.8214 184.374 39.2714 183.674 38.5114C182.974 37.7514 182.474 36.7514 182.174 35.5114C181.874 34.2514 181.724 32.7114 181.724 30.8914ZM191.054 36.4714C192.334 36.4714 193.294 36.3114 193.934 35.9914C194.574 35.6714 195.004 35.1114 195.224 34.3114C195.444 33.4914 195.554 32.3514 195.554 30.8914C195.554 29.4514 195.444 28.3314 195.224 27.5314C195.004 26.7314 194.574 26.1714 193.934 25.8514C193.294 25.5114 192.334 25.3414 191.054 25.3414C189.794 25.3414 188.834 25.5114 188.174 25.8514C187.534 26.1714 187.094 26.7314 186.854 27.5314C186.634 28.3314 186.524 29.4514 186.524 30.8914C186.524 32.3514 186.634 33.4914 186.854 34.3114C187.094 35.1114 187.534 35.6714 188.174 35.9914C188.834 36.3114 189.794 36.4714 191.054 36.4714ZM219.8 21.4114V32.6014C219.8 34.5614 219.56 36.1314 219.08 37.3114C218.62 38.4914 217.81 39.3514 216.65 39.8914C215.49 40.4114 213.85 40.6714 211.73 40.6714C209.53 40.6714 207.82 40.4114 206.6 39.8914C205.4 39.3514 204.56 38.4914 204.08 37.3114C203.6 36.1314 203.36 34.5614 203.36 32.6014V21.4114H208.16V32.5114C208.16 33.5314 208.26 34.3314 208.46 34.9114C208.66 35.4914 209.02 35.9014 209.54 36.1414C210.06 36.3614 210.79 36.4714 211.73 36.4714C212.61 36.4714 213.28 36.3614 213.74 36.1414C214.22 35.9014 214.55 35.4914 214.73 34.9114C214.91 34.3314 215 33.5314 215 32.5114V21.4114H219.8ZM228.199 40.4014H223.399V21.4114H232.459C234.839 21.4114 236.569 21.9514 237.649 23.0314C238.749 24.0914 239.299 25.6614 239.299 27.7414C239.299 29.3014 238.909 30.6414 238.129 31.7614C237.349 32.8614 236.319 33.5514 235.039 33.8314L235.009 33.9214C235.509 34.2414 236.059 34.7714 236.659 35.5114C237.259 36.2514 237.849 37.0614 238.429 37.9414C239.029 38.8014 239.559 39.6114 240.019 40.3714V40.4014H234.439L231.199 35.6014C230.919 35.1814 230.689 34.8814 230.509 34.7014C230.349 34.5214 230.149 34.4114 229.909 34.3714C229.689 34.3314 229.329 34.3114 228.829 34.3114H228.199V40.4014ZM231.679 25.3114H228.199V30.4114H231.679C232.679 30.4114 233.369 30.2114 233.749 29.8114C234.149 29.4114 234.349 28.7614 234.349 27.8614C234.349 26.9614 234.149 26.3114 233.749 25.9114C233.369 25.5114 232.679 25.3114 231.679 25.3114Z" fill="white"/>
<path d="M270.24 21.4114V32.6014C270.24 34.5614 270 36.1314 269.52 37.3114C269.06 38.4914 268.25 39.3514 267.09 39.8914C265.93 40.4114 264.29 40.6714 262.17 40.6714C259.97 40.6714 258.26 40.4114 257.04 39.8914C255.84 39.3514 255 38.4914 254.52 37.3114C254.04 36.1314 253.8 34.5614 253.8 32.6014V21.4114H258.6V32.5114C258.6 33.5314 258.7 34.3314 258.9 34.9114C259.1 35.4914 259.46 35.9014 259.98 36.1414C260.5 36.3614 261.23 36.4714 262.17 36.4714C263.05 36.4714 263.72 36.3614 264.18 36.1414C264.66 35.9014 264.99 35.4914 265.17 34.9114C265.35 34.3314 265.44 33.5314 265.44 32.5114V21.4114H270.24ZM286.139 21.4114H290.939V40.4014H286.169L280.769 32.3614C280.349 31.7214 279.999 31.1814 279.719 30.7414C279.439 30.3014 279.179 29.8614 278.939 29.4214C278.699 28.9814 278.429 28.4614 278.129 27.8614L278.039 27.9814C278.319 28.9414 278.489 29.8414 278.549 30.6814C278.609 31.5014 278.639 32.3014 278.639 33.0814V40.4014H273.839V21.4114H278.609L284.009 29.4514C284.429 30.0714 284.779 30.6114 285.059 31.0714C285.339 31.5114 285.599 31.9514 285.839 32.3914C286.079 32.8314 286.349 33.3514 286.649 33.9514L286.739 33.8314C286.539 32.9914 286.389 32.1814 286.289 31.4014C286.189 30.6014 286.139 29.8114 286.139 29.0314V21.4114ZM299.352 40.4014H294.552V21.4114H299.352V40.4014Z" fill="white"/>
<path fill-rule="evenodd" clip-rule="evenodd" d="M321.262 48.5601C324.374 48.2024 327.207 46.881 329.27 44.8694L342.554 31.5828C343.257 30.878 343.282 29.8865 342.587 29.1563L329.633 15.8964C327.554 13.7886 324.585 12.4445 321.262 12.1401V48.5601Z" fill="white"/>
<path d="M316.694 23.6315L317.455 22.2615L318.31 20.7202C318.881 19.6927 318.589 19.1722 317.781 18.1861C316.973 17.2 311.809 11.361 309.327 8.56479C308.544 7.68177 307.27 7.03885 306.368 6.92163C305.103 6.75753 297.075 5.49676 293.081 4.69857C292.338 4.58458 291.033 4.72642 291.76 6.20569C292.032 6.75745 293.419 8.14513 294.7 9.62968M294.7 9.62968C296.854 12.1252 299.199 15.0396 301.039 16.957C301.751 17.6996 302.5 18.2482 303.629 18.3947C304.893 18.5588 309.329 19.1697 311.434 19.5916C312.27 19.8312 312.914 20.4132 312.344 21.4407C311.584 22.8107 310.569 24.6374 310.157 25.3795C308.922 27.6058 306.553 27.827 304.366 27.0931C300.286 25.7242 296.771 23.7729 293.541 21.3079C292.251 20.1438 290.137 17.8498 291.658 15.1098C293.274 12.1985 294.51 9.97218 294.7 9.62968ZM314.132 27.8101L314.56 27.0395L314.893 26.4401" stroke="white" stroke-opacity="0.1" stroke-width="2" stroke-linecap="round" stroke-linejoin="round"/>
</svg>
