<svg width="45" height="45" viewBox="0 0 45 45" fill="none" xmlns="http://www.w3.org/2000/svg">
<path fill-rule="evenodd" clip-rule="evenodd" d="M22.9678 3.75C31.4971 3.75 38.4365 10.7419 38.4365 19.3369C38.4365 29.9025 26.3315 40.3125 22.9678 40.3125C19.604 40.3125 7.49902 29.9025 7.49902 19.3369C7.49902 10.7419 14.4384 3.75 22.9678 3.75ZM22.9678 6.5625C15.989 6.5625 10.3115 12.2944 10.3115 19.3369C10.3115 28.2975 20.8565 37.0275 22.9678 37.4925C25.079 37.0256 35.624 28.2956 35.624 19.3369C35.624 12.2944 29.9465 6.5625 22.9678 6.5625ZM22.9696 13.125C26.3296 13.125 29.0634 15.8588 29.0634 19.2206C29.0634 22.5806 26.3296 25.3125 22.9696 25.3125C19.6096 25.3125 16.8759 22.5806 16.8759 19.2206C16.8759 15.8588 19.6096 13.125 22.9696 13.125ZM22.9696 15.9375C21.1603 15.9375 19.6884 17.4094 19.6884 19.2206C19.6884 21.03 21.1603 22.5 22.9696 22.5C24.779 22.5 26.2509 21.03 26.2509 19.2206C26.2509 17.4094 24.779 15.9375 22.9696 15.9375Z" fill="#94A684"/>
</svg>
