<svg width="125" height="45" viewBox="0 0 125 45" fill="none" xmlns="http://www.w3.org/2000/svg">
<path fill-rule="evenodd" clip-rule="evenodd" d="M0.125953 16.9176L0.00151552 27.9974C-0.112661 37.6468 6.23613 44.6539 15.1218 44.6666L24.7931 44.6326C26.0172 44.6464 27.018 43.6453 27.0434 42.4404C27.0434 42.4404 27.3412 23.6418 27.3497 23.2402C27.4886 21.8697 28.0373 20.5025 29.1396 19.4238C31.3324 17.3546 34.8525 17.2751 37.0653 19.4581C38.1133 20.4757 38.6143 21.8317 38.577 23.1247L38.3401 42.8252C38.3553 43.7619 39.1527 44.5756 40.1517 44.6032L101.107 44.4564C104.974 44.5071 108.579 42.7823 111.07 39.8534L124.455 23.7072C125.163 22.8508 125.189 21.6459 124.488 20.7585L111.435 4.64478C109.048 1.72559 105.495 0.0118979 101.578 0L15.6433 0.171403C10.9956 0.163437 7.02499 1.93031 4.20056 5.272C1.60812 8.27852 0.141536 12.4012 0.125953 16.9176Z" fill="white"/>
<path d="M54.6 33.73H49.8V14.74H58.86C61.24 14.74 62.97 15.28 64.05 16.36C65.15 17.42 65.7 18.99 65.7 21.07C65.7 22.63 65.31 23.97 64.53 25.09C63.75 26.19 62.72 26.88 61.44 27.16L61.41 27.25C61.91 27.57 62.46 28.1 63.06 28.84C63.66 29.58 64.25 30.39 64.83 31.27C65.43 32.13 65.96 32.94 66.42 33.7V33.73H60.84L57.6 28.93C57.32 28.51 57.09 28.21 56.91 28.03C56.75 27.85 56.55 27.74 56.31 27.7C56.09 27.66 55.73 27.64 55.23 27.64H54.6V33.73ZM58.08 18.64H54.6V23.74H58.08C59.08 23.74 59.77 23.54 60.15 23.14C60.55 22.74 60.75 22.09 60.75 21.19C60.75 20.29 60.55 19.64 60.15 19.24C59.77 18.84 59.08 18.64 58.08 18.64ZM73.4859 33.73V27.85L67.3359 14.83V14.74H72.5859C73.2059 16.36 73.6959 17.66 74.0559 18.64C74.4359 19.6 74.7259 20.36 74.9259 20.92C75.1459 21.46 75.3159 21.9 75.4359 22.24C75.5559 22.58 75.6859 22.94 75.8259 23.32H75.9459C76.0859 22.94 76.2159 22.58 76.3359 22.24C76.4559 21.9 76.6159 21.46 76.8159 20.92C77.0359 20.36 77.3259 19.6 77.6859 18.64C78.0659 17.66 78.5659 16.36 79.1859 14.74H84.4359V14.83L78.2859 27.85V33.73H73.4859ZM102.685 14.74V25.93C102.685 27.89 102.445 29.46 101.965 30.64C101.505 31.82 100.695 32.68 99.5353 33.22C98.3753 33.74 96.7353 34 94.6153 34C92.4153 34 90.7053 33.74 89.4853 33.22C88.2853 32.68 87.4453 31.82 86.9653 30.64C86.4853 29.46 86.2453 27.89 86.2453 25.93V14.74H91.0453V25.84C91.0453 26.86 91.1453 27.66 91.3453 28.24C91.5453 28.82 91.9053 29.23 92.4253 29.47C92.9453 29.69 93.6753 29.8 94.6153 29.8C95.4953 29.8 96.1653 29.69 96.6253 29.47C97.1053 29.23 97.4353 28.82 97.6153 28.24C97.7953 27.66 97.8853 26.86 97.8853 25.84V14.74H102.685Z" fill="#94A684"/>
</svg>
