<svg width="32" height="32" viewBox="0 0 32 32" fill="none" xmlns="http://www.w3.org/2000/svg">
<path d="M16 32C24.8366 32 32 24.8366 32 16C32 7.16344 24.8366 0 16 0C7.16344 0 0 7.16344 0 16C0 24.8366 7.16344 32 16 32Z" fill="#FFF6BD"/>
<g opacity="0.81">
<path d="M5.59256 10.5389C5.54803 10.5389 5.50307 10.5344 5.45767 10.5247C5.10894 10.4507 4.88649 10.1077 4.9605 9.75922C5.43336 7.5343 6.74826 5.69533 8.763 4.44066C10.3987 3.422 12.4526 2.83984 14.4056 2.83984C14.4223 2.83984 14.4387 2.83984 14.4553 2.84006C14.8117 2.84178 15.0991 3.13221 15.0974 3.48869C15.0957 3.84409 14.807 4.13087 14.452 4.13087C14.4509 4.13087 14.4499 4.13087 14.4486 4.13087C14.4361 4.13087 14.4232 4.13087 14.4105 4.13087C11.6084 4.13087 7.1439 5.6949 6.22291 10.0279C6.1588 10.3311 5.89074 10.5389 5.59256 10.5389Z" fill="white"/>
</g>
<path d="M10.658 13.9022C11.4038 13.9022 12.0084 13.0475 12.0084 11.9931C12.0084 10.9387 11.4038 10.084 10.658 10.084C9.91221 10.084 9.30762 10.9387 9.30762 11.9931C9.30762 13.0475 9.91221 13.9022 10.658 13.9022Z" fill="#542A19"/>
<path d="M21.3416 13.9022C22.0874 13.9022 22.692 13.0475 22.692 11.9931C22.692 10.9387 22.0874 10.084 21.3416 10.084C20.5958 10.084 19.9912 10.9387 19.9912 11.9931C19.9912 13.0475 20.5958 13.9022 21.3416 13.9022Z" fill="#542A19"/>
<path d="M16.0394 25.2924C14.1864 25.2924 12.3808 24.7961 10.8176 23.8573C9.28047 22.9341 8.03613 21.6214 7.21905 20.0608C7.1089 19.8502 7.19022 19.5903 7.40062 19.4799C7.61124 19.3698 7.87112 19.4511 7.98148 19.6615C9.52206 22.6037 12.6097 24.4315 16.0394 24.4315C19.4505 24.4315 22.5072 22.605 24.0166 19.6645C24.125 19.453 24.3844 19.3698 24.5959 19.4782C24.8074 19.5866 24.8906 19.8461 24.7822 20.0576C23.1246 23.2867 19.7747 25.2924 16.0394 25.2924Z" fill="#542A1A"/>
</svg>
