<svg width="45" height="45" viewBox="0 0 45 45" fill="none" xmlns="http://www.w3.org/2000/svg">
<path d="M15.2417 22.2639L20.2062 27.1173C21.0572 26.265 27.0225 20.3699 29.7805 17.6473M8.74056 16.7004C4.60325 18.9494 3.77593 24.7498 8.74056 28.0643C7.55855 33.036 10.6318 37.2975 17.0147 36.3505C19.4969 40.7304 24.5796 40.8487 28.3621 36.3505C33.9176 37.1791 37.3454 33.6279 36.3998 28.1826C40.7733 25.6968 40.7733 19.8964 36.3998 17.0554C37.6998 11.7286 33.2081 7.58549 28.1254 8.76921C25.8796 4.38939 19.2603 3.91588 17.1327 8.88757C11.5772 7.23033 7.20369 11.3734 8.74056 16.7004Z" stroke="#94A684" stroke-width="3" stroke-linecap="round" stroke-linejoin="round"/>
</svg>
