<svg width="24" height="24" viewBox="0 0 24 24" fill="none" xmlns="http://www.w3.org/2000/svg">
<path fill-rule="evenodd" clip-rule="evenodd" d="M12.0028 4.7998C16.1388 4.80268 19.8527 7.58572 21.9387 12.2456C22.0207 12.427 22.0207 12.6324 21.9387 12.8139C19.8537 17.4747 16.1388 20.2577 12.0028 20.2606H11.9967C7.86075 20.2577 4.14675 17.4747 2.06075 12.8139C1.97975 12.6324 1.97975 12.427 2.06075 12.2456C4.14675 7.58572 7.86175 4.80268 11.9967 4.7998H12.0028ZM11.9998 6.2398C8.56375 6.24076 5.42975 8.58604 3.56975 12.5297C5.42975 16.4744 8.56275 18.8196 11.9998 18.8206C15.4368 18.8196 18.5697 16.4744 20.4297 12.5297C18.5697 8.58604 15.4368 6.24076 11.9998 6.2398ZM11.9995 8.77497C14.1565 8.77497 15.9115 10.4598 15.9115 12.5305C15.9115 14.6003 14.1565 16.2841 11.9995 16.2841C9.84245 16.2841 8.08845 14.6003 8.08845 12.5305C8.08845 10.4598 9.84245 8.77497 11.9995 8.77497ZM11.9995 10.215C10.6695 10.215 9.58845 11.2537 9.58845 12.5305C9.58845 13.8063 10.6695 14.8441 11.9995 14.8441C13.3295 14.8441 14.4115 13.8063 14.4115 12.5305C14.4115 11.2537 13.3295 10.215 11.9995 10.215Z" fill="#94A684"/>
</svg>
